<?xml version="1.0" standalone="no"?>
<!DOCTYPE svg PUBLIC "-//W3C//DTD SVG 1.1//EN" "http://www.w3.org/Graphics/SVG/1.1/DTD/svg11.dtd" >
<svg>
<metadata>
Created by FontForge 20120731 at Tue Oct  4 20:56:11 2016
 By ,,,
 Copyright (c)2014 Talbot Type. All Rights Reserved
</metadata>
<defs>
<font id="Kamerik205-Regular3" horiz-adv-x="262" >
  <font-face 
    font-family="Kamerik205 8"
    font-weight="400"
    font-stretch="normal"
    units-per-em="1000"
    panose-1="2 11 8 3 3 6 0 2 0 4"
    ascent="803"
    descent="-197"
    x-height="579"
    cap-height="750"
    bbox="-14 -235 1244 932"
    underline-thickness="28"
    underline-position="-72"
    unicode-range="U+0020-FB07"
  />
<missing-glyph horiz-adv-x="270" 
 />
    <glyph glyph-name=".notdef" horiz-adv-x="270" 
 />
    <glyph glyph-name=".null" horiz-adv-x="0" 
 />
    <glyph glyph-name="nonmarkingreturn" horiz-adv-x="333" 
 />
    <glyph glyph-name="space" unicode=" " horiz-adv-x="270" 
 />
    <glyph glyph-name="exclam" unicode="!" horiz-adv-x="268" 
d="M211 70q0 -33 -22.5 -55t-54.5 -22t-54.5 22t-22.5 55q0 31 22.5 53t54.5 22t54.5 -22t22.5 -53zM187 204h-127v546h127v-546z" />
    <glyph glyph-name="quotedbl" unicode="&#x22;" horiz-adv-x="309" 
d="M123 477h-73v273h73v-273zM187 750h72v-273h-72v273z" />
    <glyph glyph-name="numbersign" unicode="#" horiz-adv-x="620" 
d="M373 426h-103l-21 -103h102zM440 426l-22 -103h182v-67h-196l-54 -256h-69l56 256h-103l-55 -256h-67l54 256h-146v67h160l22 103h-182v68h196l54 256h69l-54 -256h102l54 256h69l-54 -256h144v-68h-160z" />
    <glyph glyph-name="dollar" unicode="$" horiz-adv-x="581" 
d="M533 535h-144q0 50 -28 79.5t-71 29.5q-44 0 -71 -27.5t-27 -71.5q0 -43 27 -69.5t71 -26.5q110 0 180.5 -67t70.5 -173q0 -86 -52.5 -146.5t-131.5 -76.5v-62h-136v62q-78 15 -129.5 77.5t-51.5 145.5h147q0 -43 29.5 -73t73.5 -30t73.5 29.5t29.5 73.5q0 43 -29.5 73
t-73.5 30q-110 0 -178 64t-68 169q0 88 47 138.5t130 65.5v61h136v-61q176 -29 176 -214z" />
    <glyph glyph-name="percent" unicode="%" horiz-adv-x="627" 
d="M188 -17l-69 29l243 582h-11q-21 0 -39 6q-11 -46 -48.5 -75.5t-85.5 -29.5q-56 0 -97 40t-41 96t41 96t97 40q37 0 69 -18.5t50 -48.5q18 -32 54 -32q41 0 58 39l25 60l69 -29zM587 120q0 -57 -40 -97t-97 -40q-56 0 -96.5 40t-40.5 97q0 56 40.5 96t96.5 40
q57 0 97 -40t40 -96zM241 631q0 26 -18.5 44.5t-44.5 18.5q-25 0 -43.5 -18.5t-18.5 -44.5t18.5 -44t43.5 -18q26 0 44.5 18t18.5 44zM511 120q0 26 -17.5 44t-43.5 18q-25 0 -43 -18.5t-18 -43.5q0 -26 18 -44.5t43 -18.5q26 0 43.5 18.5t17.5 44.5z" />
    <glyph glyph-name="ampersand" unicode="&#x26;" horiz-adv-x="667" 
d="M637 132v-132h-42q-62 0 -104 51q-71 -68 -172 -68q-124 0 -201.5 67t-77.5 183q0 65 35.5 120.5t90.5 93.5q-51 64 -51 124q0 83 60 139.5t144 56.5t144 -56.5t60 -139.5q0 -80 -61 -138t-143 -58q-58 0 -94.5 -38t-36.5 -94q0 -58 36.5 -96t94.5 -38q56 0 94.5 42
t38.5 97v42q0 72 36.5 113t106.5 41h42v-132h-42q-7 0 -12.5 -5t-5.5 -12v-145q0 -7 5.5 -12.5t12.5 -5.5h42zM248 570q0 -29 21 -50t50 -21q28 0 49.5 21t21.5 50q0 28 -21.5 49.5t-49.5 21.5t-49.5 -21.5t-21.5 -49.5z" />
    <glyph glyph-name="quotesingle" unicode="'" horiz-adv-x="173" 
d="M50 477v273h73v-273h-73z" />
    <glyph glyph-name="parenleft" unicode="(" horiz-adv-x="337" 
d="M182 287q0 -287 125 -475h-109q-56 102 -87 226t-31 249q0 266 118 480h109q-125 -188 -125 -480z" />
    <glyph glyph-name="parenright" unicode=")" horiz-adv-x="337" 
d="M155 287q0 292 -125 480h109q118 -214 118 -480q0 -125 -31 -249t-87 -226h-109q125 188 125 475z" />
    <glyph glyph-name="asterisk" unicode="*" horiz-adv-x="385" 
d="M139 647l-59 26l34 57l52 -38l-6 65h66l-6 -65l53 38l32 -57l-59 -26l59 -28l-32 -56l-53 37l6 -65h-66l6 65l-52 -37l-34 56z" />
    <glyph glyph-name="plus" unicode="+" horiz-adv-x="680" 
d="M50 340h240v239h102v-239h238v-102h-238v-238h-102v238h-240v102z" />
    <glyph glyph-name="comma" unicode="," horiz-adv-x="274" 
d="M189 -5q0 -48 -34 -82t-81 -34v65q20 0 35 14.5t16 35.5q-5 -2 -13 -2q-32 0 -54.5 23t-22.5 54t22.5 54t54.5 23t54.5 -23t22.5 -54v-74z" />
    <glyph glyph-name="hyphen" unicode="-" horiz-adv-x="465" 
d="M70 340h325v-102h-325v102z" />
    <glyph glyph-name="period" unicode="." horiz-adv-x="274" 
d="M112 -8q-32 0 -54.5 23t-22.5 54t22.5 54t54.5 23t54.5 -23t22.5 -54t-22.5 -54t-54.5 -23z" />
    <glyph glyph-name="slash" unicode="/" horiz-adv-x="502" 
d="M60 12l314 755l68 -29l-314 -755z" />
    <glyph glyph-name="zero" unicode="0" horiz-adv-x="641" 
d="M589 503v-257q0 -114 -78 -188.5t-190 -74.5t-190.5 74.5t-78.5 188.5v257q0 114 78.5 189t190.5 75t190 -75t78 -189zM447 236v277q0 53 -37 90.5t-89 37.5q-53 0 -90 -37.5t-37 -90.5v-277q0 -53 37 -90t90 -37q52 0 89 37t37 90z" />
    <glyph glyph-name="one" unicode="1" horiz-adv-x="404" 
d="M50 529v136l142 85h142v-750h-142v603l-3 3z" />
    <glyph glyph-name="two" unicode="2" horiz-adv-x="596" 
d="M457 322l-193 -183l1 -3h269v-136h-474v136l308 288q40 40 40 101q0 52 -29 84t-84 32q-54 0 -84.5 -36.5t-30.5 -89.5v-33h-140v33q0 112 69 182t186 70q118 0 189.5 -65.5t71.5 -176.5q0 -54 -29.5 -109t-69.5 -94z" />
    <glyph glyph-name="three" unicode="3" horiz-adv-x="619" 
d="M307 460q98 0 98 91q0 47 -23 68.5t-75 21.5q-98 0 -98 -95h-146v8q0 102 63.5 157.5t180.5 55.5q246 0 246 -208q0 -58 -27 -99.5t-73 -60.5v-4q57 -21 91.5 -69.5t34.5 -116.5q0 -112 -71 -169t-201 -57q-128 0 -198.5 61t-70.5 170v8h146q0 -113 123 -113
q124 0 124 108q0 52 -32 80t-92 28h-52v135h52z" />
    <glyph glyph-name="four" unicode="4" horiz-adv-x="594" 
d="M20 136v136l328 478h142v-478h84v-136h-84v-136h-142v136h-328zM345 532l-172 -257l1 -3h174v259z" />
    <glyph glyph-name="five" unicode="5" horiz-adv-x="627" 
d="M210 319l-131 23l70 408h359v-136h-245l-19 -141l3 -2q53 17 95 17q105 0 175 -71.5t70 -180.5q0 -119 -76 -186t-201 -67q-119 0 -194.5 69t-75.5 184h141q0 -53 38 -90t91 -37t91 37t38 90t-38 90.5t-91 37.5q-60 0 -100 -45z" />
    <glyph glyph-name="six" unicode="6" horiz-adv-x="629" 
d="M457 750l-155 -259l1 -1q10 1 19 1q109 0 188 -72t79 -181q0 -113 -79.5 -184t-195.5 -71t-195 71t-79 184q0 84 36 142l224 370h157zM441 238q0 52 -37 89.5t-90 37.5t-89.5 -37.5t-36.5 -89.5q0 -54 36.5 -91.5t89.5 -37.5t90 38t37 91z" />
    <glyph glyph-name="seven" unicode="7" horiz-adv-x="556" 
d="M378 614h-352v136h500v-136l-252 -614h-154l259 611z" />
    <glyph glyph-name="eight" unicode="8" horiz-adv-x="642" 
d="M454 218q0 54 -35.5 81.5t-97.5 27.5t-97.5 -27.5t-35.5 -81.5t36 -81.5t97 -27.5t97 27.5t36 81.5zM430 549q0 46 -29.5 69t-79.5 23t-79.5 -23t-29.5 -69q0 -47 29.5 -70.5t79.5 -23.5t79.5 23.5t29.5 70.5zM576 554q0 -56 -31 -96.5t-78 -60.5v-4q58 -20 96.5 -67.5
t38.5 -112.5q0 -111 -77 -170.5t-204 -59.5t-204 59.5t-77 170.5q0 65 38.5 112.5t96.5 67.5v4q-47 20 -78 60.5t-31 96.5q0 103 69.5 158t185.5 55q115 0 185 -55t70 -158z" />
    <glyph glyph-name="nine" unicode="9" horiz-adv-x="629" 
d="M172 0l155 259l-1 1q-10 -1 -19 -1q-109 0 -188 72t-79 181q0 113 79.5 184t195.5 71t195 -71t79 -184q0 -83 -36 -142l-224 -370h-157zM188 512q0 -52 37 -89.5t90 -37.5t89.5 37.5t36.5 89.5q0 54 -36.5 91.5t-89.5 37.5t-90 -38t-37 -91z" />
    <glyph glyph-name="colon" unicode=":" horiz-adv-x="274" 
d="M189 69q0 -31 -22.5 -54t-54.5 -23t-54.5 23t-22.5 54t22.5 54t54.5 23t54.5 -23t22.5 -54zM35 510q0 32 22.5 54.5t54.5 22.5t54.5 -22.5t22.5 -54.5t-22.5 -54.5t-54.5 -22.5t-54.5 22.5t-22.5 54.5z" />
    <glyph glyph-name="semicolon" unicode=";" horiz-adv-x="274" 
d="M35 510q0 32 22.5 54.5t54.5 22.5t54.5 -22.5t22.5 -54.5t-22.5 -54.5t-54.5 -22.5t-54.5 22.5t-22.5 54.5zM189 69v-74q0 -48 -34 -82t-81 -34v65q20 0 35 14.5t16 35.5q-5 -2 -13 -2q-32 0 -54.5 23t-22.5 54t22.5 54t54.5 23t54.5 -23t22.5 -54z" />
    <glyph glyph-name="less" unicode="&#x3c;" horiz-adv-x="421" 
d="M381 579v-125l-243 -162v-5l243 -162v-125l-341 238v102z" />
    <glyph glyph-name="equal" unicode="=" horiz-adv-x="679" 
d="M50 256h579v-102h-579v102zM629 324h-579v102h579v-102z" />
    <glyph glyph-name="greater" unicode="&#x3e;" horiz-adv-x="421" 
d="M40 454v125l341 -239v-102l-341 -238v125l243 162v5z" />
    <glyph glyph-name="question" unicode="?" horiz-adv-x="610" 
d="M301 768q116 0 192.5 -71t76.5 -183q0 -95 -59.5 -160.5t-142.5 -72.5v-80h-134v188h67q53 0 87 36t34 89t-34 90t-87 37t-87 -37t-34 -90h-140q0 112 73 183t188 71zM377 69q0 -32 -22.5 -54.5t-53.5 -22.5q-32 0 -54.5 22.5t-22.5 54.5t22.5 54.5t54.5 22.5
q31 0 53.5 -22.5t22.5 -54.5z" />
    <glyph glyph-name="at" unicode="@" horiz-adv-x="875" 
d="M706 337v38q0 113 -80.5 193.5t-192.5 80.5q-113 0 -192.5 -80.5t-79.5 -193.5t79.5 -193.5t192.5 -80.5q60 0 122 30l53 -107q-84 -41 -175 -41q-163 0 -278 115t-115 277t115 277t278 115q162 0 277 -115t115 -277v-38q0 -65 -46.5 -111.5t-111.5 -46.5q-66 0 -109 45
q-55 -44 -125 -44q-81 0 -139 57t-58 138t58 138t139 57t138.5 -57t57.5 -138v-42q2 -15 12.5 -25.5t25.5 -10.5q16 0 27.5 11.5t11.5 28.5zM509 375q0 32 -22.5 54.5t-53.5 22.5t-53.5 -22.5t-22.5 -54.5t22.5 -54.5t53.5 -22.5t53.5 22.5t22.5 54.5z" />
    <glyph glyph-name="A" unicode="A" horiz-adv-x="712" 
d="M279 750h154l264 -750h-153l-47 136h-282l-47 -136h-153zM264 272h184l-88 306h-8z" />
    <glyph glyph-name="B" unicode="B" horiz-adv-x="694" 
d="M654 221q0 -94 -70 -157.5t-170 -63.5h-354v750h337q93 0 158 -58t65 -146q0 -94 -94 -145q52 -20 90 -66t38 -114zM506 232q0 39 -26.5 67t-65.5 28h-212v-191h212q39 0 65.5 28.5t26.5 67.5zM202 614v-159h195q31 0 53 23.5t22 55.5q0 33 -22 56.5t-53 23.5h-195z" />
    <glyph glyph-name="C" unicode="C" horiz-adv-x="849" 
d="M437 767q134 0 241 -77.5t136 -203.5h-146q-33 66 -95 108.5t-136 42.5q-105 0 -180 -78t-75 -184q0 -107 75 -184.5t180 -77.5q74 0 136 42t95 109h146q-29 -126 -136 -203.5t-241 -77.5q-168 0 -285 113t-117 279t117 279t285 113z" />
    <glyph glyph-name="D" unicode="D" horiz-adv-x="741" 
d="M60 750h261q164 0 274.5 -106.5t110.5 -268.5t-110.5 -268.5t-274.5 -106.5h-261v750zM558 375q0 98 -69.5 168.5t-167.5 70.5h-119v-478h119q98 0 167.5 70t69.5 169z" />
    <glyph glyph-name="E" unicode="E" horiz-adv-x="646" 
d="M202 136h409v-136h-551v750h551v-136h-409v-170h340v-136h-340v-172z" />
    <glyph glyph-name="F" unicode="F" horiz-adv-x="608" 
d="M593 614h-391v-170h323v-136h-323v-308h-142v750h533v-136z" />
    <glyph glyph-name="G" unicode="G" horiz-adv-x="879" 
d="M814 0h-132v121h-4q-36 -62 -106.5 -100t-161.5 -38q-155 0 -265 113t-110 279q0 167 118.5 279.5t293.5 112.5q125 0 231 -69t136 -182h-154q-28 55 -84.5 88t-128.5 33q-112 0 -188 -77.5t-76 -184.5t73.5 -184.5t178.5 -77.5q87 0 157 57t84 138h-229v136h367v-444z
" />
    <glyph glyph-name="H" unicode="H" horiz-adv-x="709" 
d="M649 0h-142v308h-305v-308h-142v750h142v-306h305v306h142v-750z" />
    <glyph glyph-name="I" unicode="I" 
d="M60 0v750h142v-750h-142z" />
    <glyph glyph-name="J" unicode="J" horiz-adv-x="554" 
d="M256 -17q-109 0 -172.5 62t-63.5 170h140q0 -45 26.5 -73.5t69.5 -28.5q44 0 70 28t26 74v535h142v-535q0 -107 -64.5 -169.5t-173.5 -62.5z" />
    <glyph glyph-name="K" unicode="K" horiz-adv-x="699" 
d="M358 375l326 -375h-180l-236 270l-66 -75v-195h-142v750h142v-347l302 347h180z" />
    <glyph glyph-name="L" unicode="L" horiz-adv-x="591" 
d="M576 136v-136h-516v750h142v-614h374z" />
    <glyph glyph-name="M" unicode="M" horiz-adv-x="880" 
d="M820 750v-750h-141l1 410h-3l-167 -410h-139l-167 410h-3l1 -410h-142v750h142l236 -561h4l237 561h141z" />
    <glyph glyph-name="N" unicode="N" horiz-adv-x="709" 
d="M649 750v-750h-142l-303 500h-2v-500h-142v750h142l303 -501h2v501h142z" />
    <glyph glyph-name="O" unicode="O" horiz-adv-x="874" 
d="M691 375q0 106 -74 182t-180 76q-105 0 -179.5 -76t-74.5 -182q0 -107 74 -182.5t180 -75.5t180 75.5t74 182.5zM839 375q0 -166 -117.5 -279t-284.5 -113q-168 0 -285 113t-117 279t117 279t285 113q167 0 284.5 -113t117.5 -279z" />
    <glyph glyph-name="P" unicode="P" horiz-adv-x="689" 
d="M654 494q0 -109 -77 -182.5t-187 -73.5h-188v-238h-142v750h330q110 0 187 -73.5t77 -182.5zM506 494q0 50 -33.5 85t-82.5 35h-188v-240h188q49 0 82.5 35t33.5 85z" />
    <glyph glyph-name="Q" unicode="Q" horiz-adv-x="884" 
d="M839 135v-135h-402q-169 0 -285.5 107t-116.5 271q0 165 117 276.5t285 111.5t285 -113t117 -275q0 -133 -128 -239l3 -4h125zM437 132q104 0 179 71t75 175q0 105 -74 180t-180 75q-105 0 -179.5 -75t-74.5 -180q0 -103 74 -174.5t180 -71.5z" />
    <glyph glyph-name="R" unicode="R" horiz-adv-x="694" 
d="M654 494q0 -79 -41.5 -140.5t-110.5 -91.5l131 -262h-158l-119 238h-154v-238h-142v750h330q110 0 187 -73.5t77 -182.5zM506 494q0 50 -33.5 85t-82.5 35h-188v-240h188q49 0 82.5 35t33.5 85z" />
    <glyph glyph-name="S" unicode="S" horiz-adv-x="641" 
d="M583 541h-140q0 44 -36.5 73.5t-89.5 29.5q-55 0 -85.5 -24t-30.5 -65q0 -35 22 -57t57.5 -32.5t78 -18.5t85 -21.5t78 -35.5t57.5 -66t22 -107q0 -108 -79.5 -171t-204.5 -63q-124 0 -200.5 65.5t-76.5 177.5h140q0 -51 38.5 -85.5t98.5 -34.5q61 0 98.5 31t37.5 80
q0 36 -22 59t-57.5 33.5t-78 18.5t-85 21t-78 34.5t-57.5 65t-22 106.5q0 99 74.5 155.5t189.5 56.5q117 0 191.5 -60t74.5 -166z" />
    <glyph glyph-name="T" unicode="T" horiz-adv-x="616" 
d="M601 614h-222v-614h-142v614h-222v136h586v-136z" />
    <glyph glyph-name="U" unicode="U" horiz-adv-x="718" 
d="M658 750v-489q0 -127 -83.5 -202.5t-215.5 -75.5t-215.5 75t-83.5 203v489h142v-492q0 -66 44.5 -105.5t112.5 -39.5t112.5 39.5t44.5 105.5v492h142z" />
    <glyph glyph-name="V" unicode="V" horiz-adv-x="704" 
d="M689 750l-268 -750h-138l-268 750h149l186 -542h4l186 542h149z" />
    <glyph glyph-name="W" unicode="W" horiz-adv-x="1002" 
d="M987 750l-210 -750h-140l-133 503h-4l-134 -503h-140l-211 750h145l134 -504h4l132 504h142l132 -504h4l134 504h145z" />
    <glyph glyph-name="X" unicode="X" horiz-adv-x="693" 
d="M433 375l245 -375h-170l-159 257h-4l-160 -257h-170l245 375l-245 375h170l160 -258h4l159 258h170z" />
    <glyph glyph-name="Y" unicode="Y" horiz-adv-x="715" 
d="M532 750h168l-270 -435v-315h-142v315l-273 435h168l174 -291h4z" />
    <glyph glyph-name="Z" unicode="Z" horiz-adv-x="639" 
d="M609 136v-136h-579v136l402 476v2h-402v136h579v-136l-401 -476v-2h401z" />
    <glyph glyph-name="bracketleft" unicode="[" horiz-adv-x="314" 
d="M182 -77h102v-94h-204v921h204v-94h-102v-733z" />
    <glyph glyph-name="backslash" unicode="\" horiz-adv-x="502" 
d="M128 767l314 -755l-68 -29l-314 755z" />
    <glyph glyph-name="bracketright" unicode="]" horiz-adv-x="314" 
d="M30 -77h102v733h-102v94h204v-921h-204v94z" />
    <glyph glyph-name="asciicircum" unicode="^" horiz-adv-x="598" 
d="M248 750h102l188 -375h-115l-122 262h-2l-124 -262h-115z" />
    <glyph glyph-name="underscore" unicode="_" horiz-adv-x="519" 
d="M0 -91h579v-25h-579v25z" />
    <glyph glyph-name="grave" unicode="`" horiz-adv-x="351" 
d="M90 684v83l171 -59v-66z" />
    <glyph glyph-name="a" unicode="a" horiz-adv-x="645" 
d="M585 399v-399h-142v84l-3 1q-64 -102 -178 -102q-227 0 -227 191q0 88 58 135t175 47h175v43q0 49 -28.5 65.5t-89.5 16.5q-60 0 -89.5 -17t-29.5 -65h-136q0 98 68 147.5t187 49.5q120 0 190 -49.5t70 -147.5zM443 203v42h-175q-86 0 -86 -67q0 -36 24 -51.5t88 -15.5
q68 0 108.5 26.5t40.5 65.5z" />
    <glyph glyph-name="b" unicode="b" horiz-adv-x="728" 
d="M202 290q0 -72 48 -124.5t121 -52.5t121 52.5t48 124.5t-48 124t-121 52t-121 -52t-48 -124zM202 85v-85h-142v750h142v-255h2q75 101 193 101q129 0 210 -86.5t81 -219.5t-81 -220t-210 -87q-117 0 -193 102h-2z" />
    <glyph glyph-name="c" unicode="c" horiz-adv-x="690" 
d="M660 359h-145q-21 51 -60.5 83t-97.5 32q-77 0 -123.5 -52t-46.5 -132t46.5 -132t123.5 -52q58 0 97.5 32t60.5 83h145q-21 -111 -100 -174.5t-203 -63.5q-139 0 -228 87t-89 220t89 220t228 87q124 0 202.5 -63.5t100.5 -174.5z" />
    <glyph glyph-name="d" unicode="d" horiz-adv-x="728" 
d="M526 290q0 72 -48 124t-121 52t-121 -52t-48 -124t48 -124.5t121 -52.5t121 52.5t48 124.5zM526 0v85h-2q-76 -102 -193 -102q-129 0 -210 87t-81 220t81 219.5t210 86.5q118 0 193 -101h2v255h142v-750h-142z" />
    <glyph glyph-name="e" unicode="e" horiz-adv-x="707" 
d="M667 290q0 -30 -8 -65h-467q12 -49 57.5 -84t104.5 -35q43 0 77 19.5t53 48.5h154q-31 -87 -109 -139t-175 -52q-131 0 -222.5 88.5t-91.5 218.5t92 218t224 88q129 0 220 -89t91 -217zM194 348h321q-11 55 -53.5 91.5t-105.5 36.5t-107 -37t-55 -91z" />
    <glyph glyph-name="f" unicode="f" horiz-adv-x="347" 
d="M224 579h79v-110h-79v-469h-142v469h-52v110h52v20q0 73 45 112t125 39h51v-116h-44q-14 0 -24.5 -10.5t-10.5 -24.5v-20z" />
    <glyph glyph-name="g" unicode="g" horiz-adv-x="637" 
d="M545 493q-14 0 -21.5 -7.5t-5.5 -19.5q0 -3 7.5 -26t7.5 -41q0 -88 -57.5 -138t-156.5 -50q-97 0 -118 -7q-27 -9 -27 -34q0 -18 15 -27q45 14 130 14q282 0 282 -170q0 -175 -282 -175q-283 0 -283 175q0 38 41 87q-35 38 -35 78q0 48 32.5 82.5t94.5 40.5v4
q-27 19 -46 52t-19 68q0 86 60.5 141.5t154.5 55.5q79 0 136 -47q35 47 90 47h39v-103h-39zM184 -13q0 -35 33 -49t102 -14q68 0 101 14t33 49q0 66 -134 66q-135 0 -135 -66zM395 399q0 31 -22.5 53.5t-53.5 22.5t-54 -22.5t-23 -53.5t22.5 -53t54.5 -22q31 0 53.5 22
t22.5 53z" />
    <glyph glyph-name="h" unicode="h" horiz-adv-x="655" 
d="M202 0h-142v750h142v-243l1 -1h1l1 1q26 38 69.5 63.5t96.5 25.5q101 0 162.5 -68t61.5 -178v-350h-142v332q0 53 -36.5 90.5t-88.5 37.5q-53 0 -89.5 -37.5t-36.5 -90.5v-332z" />
    <glyph glyph-name="i" unicode="i" 
d="M60 579h142v-579h-142v579zM52 689q0 32 23.5 55t55.5 23t55.5 -23t23.5 -55q0 -33 -23 -55.5t-56 -22.5t-56 22.5t-23 55.5z" />
    <glyph glyph-name="j" unicode="j" horiz-adv-x="286" 
d="M78 689q-1 32 22.5 55t56.5 23q32 0 55.5 -23t23.5 -55q0 -33 -23 -55.5t-56 -22.5t-56 22.5t-23 55.5zM86 -20v599h142v-599q0 -73 -45 -112t-125 -39h-40v116h33q14 0 24.5 10.5t10.5 24.5z" />
    <glyph glyph-name="k" unicode="k" horiz-adv-x="628" 
d="M427 579h189l-257 -269l257 -310h-178l-174 212l-62 -68v-144h-142v750h142v-410z" />
    <glyph glyph-name="l" unicode="l" 
d="M60 0v750h142v-750h-142z" />
    <glyph glyph-name="m" unicode="m" horiz-adv-x="950" 
d="M202 0h-142v579h131v-79h2q56 96 151 96q99 0 162 -100q31 42 78.5 71t97.5 29q96 0 152 -65.5t56 -172.5v-358h-142v364q0 43 -29 72.5t-72 29.5q-42 0 -71.5 -29.5t-29.5 -72.5v-364h-142v364q0 43 -29 72.5t-72 29.5q-42 0 -71.5 -29.5t-29.5 -72.5v-364z" />
    <glyph glyph-name="n" unicode="n" horiz-adv-x="657" 
d="M202 0h-142v579h131v-83h2q24 44 70 72t109 28q100 0 162.5 -68.5t62.5 -177.5v-350h-142v338q0 53 -37 90.5t-89 37.5q-53 0 -90 -37.5t-37 -90.5v-338z" />
    <glyph glyph-name="o" unicode="o" horiz-adv-x="714" 
d="M526 290q0 79 -46 129.5t-123 50.5q-76 0 -122.5 -51t-46.5 -129q0 -79 46.5 -130t122.5 -51q77 0 123 50.5t46 130.5zM674 290q0 -131 -92 -219t-225 -88q-132 0 -224.5 88t-92.5 219q0 130 92.5 218t224.5 88q133 0 225 -88t92 -218z" />
    <glyph glyph-name="p" unicode="p" horiz-adv-x="728" 
d="M202 289q0 -72 48 -124t121 -52t121 52t48 124t-48 124.5t-121 52.5t-121 -52.5t-48 -124.5zM202 579v-85h2q76 102 193 102q129 0 210 -87t81 -220t-81 -219.5t-210 -86.5q-118 0 -193 101h-2v-255h-142v750h142z" />
    <glyph glyph-name="q" unicode="q" horiz-adv-x="728" 
d="M526 289q0 72 -48 124.5t-121 52.5t-121 -52.5t-48 -124.5t48 -124t121 -52t121 52t48 124zM526 494v85h142v-750h-142v255h-2q-75 -101 -193 -101q-129 0 -210 86.5t-81 219.5t81 220t210 87q117 0 193 -102h2z" />
    <glyph glyph-name="r" unicode="r" horiz-adv-x="390" 
d="M60 0v579h126v-80h2q57 97 158 97h12v-144h-33q-51 0 -87.5 -34.5t-40.5 -85.5v-332h-137z" />
    <glyph glyph-name="s" unicode="s" horiz-adv-x="586" 
d="M527 400h-136q0 39 -28 60.5t-75 21.5q-45 0 -67.5 -17.5t-22.5 -45.5q0 -29 26 -44.5t64.5 -19.5t83.5 -13.5t83.5 -23.5t64.5 -53t26 -100q0 -91 -71.5 -136.5t-186.5 -45.5q-113 0 -180.5 53.5t-67.5 142.5h137q0 -36 31 -58.5t80 -22.5q51 0 81.5 17.5t30.5 49.5
q0 31 -25.5 47t-64 19.5t-83.5 12t-83.5 22t-64 52.5t-25.5 101q0 86 62 131.5t172 45.5q112 0 175.5 -51.5t63.5 -144.5z" />
    <glyph glyph-name="t" unicode="t" horiz-adv-x="344" 
d="M78 469h-53v110h53v131h142v-131h99v-110h-99v-308q0 -15 10 -25t24 -10h65v-126h-65q-79 0 -127.5 46.5t-48.5 124.5v298z" />
    <glyph glyph-name="u" unicode="u" horiz-adv-x="657" 
d="M455 579h142v-579h-131v83h-2q-24 -44 -70 -72t-109 -28q-100 0 -162.5 68.5t-62.5 177.5v350h142v-338q0 -53 37 -90.5t89 -37.5q53 0 90 37.5t37 90.5v338z" />
    <glyph glyph-name="v" unicode="v" horiz-adv-x="616" 
d="M601 579l-225 -579h-136l-225 579h147l146 -388h2l144 388h147z" />
    <glyph glyph-name="w" unicode="w" horiz-adv-x="924" 
d="M15 579h147l114 -359h2l115 359h137l117 -359h2l113 359h147l-194 -579h-136l-116 352h-2l-117 -352h-136z" />
    <glyph glyph-name="x" unicode="x" horiz-adv-x="620" 
d="M226 290l-211 289h169l125 -174h2l125 174h169l-210 -289l210 -290h-169l-125 175h-2l-125 -175h-169z" />
    <glyph glyph-name="y" unicode="y" horiz-adv-x="615" 
d="M600 579l-290 -750h-146l71 184l-220 566h147l145 -377h2l144 377h147z" />
    <glyph glyph-name="z" unicode="z" horiz-adv-x="570" 
d="M532 449l-302 -317v-2h302v-130h-494v130l303 317v2h-303v130h494v-130z" />
    <glyph glyph-name="braceleft" unicode="{" horiz-adv-x="383" 
d="M353 -171h-34q-64 0 -109 45t-45 109v205q0 20 -14.5 35t-35.5 15h-35v102h35q21 0 35.5 15.5t14.5 36.5v204q0 64 45 109t109 45h34v-94h-34q-21 0 -36.5 -18.5t-15.5 -41.5v-204q0 -63 -61 -100v-4q61 -37 61 -100v-205q0 -23 15.5 -41.5t36.5 -18.5h34v-94z" />
    <glyph glyph-name="bar" unicode="|" horiz-adv-x="310" 
d="M190 -171h-70v921h70v-921z" />
    <glyph glyph-name="braceright" unicode="}" horiz-adv-x="383" 
d="M64 -171h-34v94h34q21 0 36.5 18.5t15.5 41.5v205q0 63 61 100v4q-61 37 -61 100v204q0 23 -15.5 41.5t-36.5 18.5h-34v94h34q64 0 109 -45t45 -109v-204q0 -21 14.5 -36.5t35.5 -15.5h35v-102h-35q-21 0 -35.5 -15t-14.5 -35v-205q0 -64 -45 -109t-109 -45z" />
    <glyph glyph-name="asciitilde" unicode="~" horiz-adv-x="521" 
d="M227 270q-11 18 -29.5 23.5t-35.5 -4.5q-23 -11 -23 -43h-79q1 34 18 63.5t48 46.5q45 26 93.5 12.5t75.5 -59.5q11 -18 29 -23t36 5q23 11 23 43h78q0 -74 -65 -110q-46 -26 -94.5 -13t-74.5 59z" />
    <glyph glyph-name="uni00A0" unicode="&#xa0;" horiz-adv-x="500" 
 />
    <glyph glyph-name="exclamdown" unicode="&#xa1;" horiz-adv-x="268" 
d="M211 680q0 -31 -22.5 -53t-54.5 -22t-54.5 22t-22.5 53q0 33 22.5 55t54.5 22t54.5 -22t22.5 -55zM80 546h107l20 -546h-147z" />
    <glyph glyph-name="cent" unicode="&#xa2;" horiz-adv-x="690" 
d="M426 -85h-138v75q-112 20 -180 102t-68 198q0 115 68 197t180 103v75h138v-74q95 -16 155 -77t79 -155h-145q-21 51 -60.5 83t-97.5 32q-77 0 -123.5 -52t-46.5 -132t46.5 -132t123.5 -52q58 0 97.5 32t60.5 83h145q-18 -94 -78.5 -155t-155.5 -77v-74z" />
    <glyph glyph-name="sterling" unicode="&#xa3;" horiz-adv-x="637" 
d="M121 318h-81v130h81v79q0 111 64.5 175t173.5 64t173.5 -64t64.5 -175h-136q0 51 -27.5 82.5t-74.5 31.5t-74.5 -31.5t-27.5 -82.5v-79h192v-130h-192v-144q70 1 115 -47q32 -26 60.5 -9.5t27.5 52.5h137q0 -74 -46 -125t-116 -61q-96 -12 -162 54q-14 14 -35 14t-37 -14
l-53 -55l-96 97l53 54q7 7 16 13v171z" />
    <glyph glyph-name="currency" unicode="&#xa4;" horiz-adv-x="702" 
d="M79 290q0 84 47 153l-65 66l72 72l65 -66q70 48 154 48q83 0 153 -48l65 65l72 -72l-65 -65q48 -70 48 -153q0 -84 -48 -154l65 -64l-72 -73l-65 65q-67 -47 -153 -47q-85 0 -154 47l-66 -66l-72 72l66 66q-47 69 -47 154zM179 290q0 -71 51 -122t122 -51t122 51t51 122
t-51 122t-122 51t-122 -51t-51 -122z" />
    <glyph glyph-name="yen" unicode="&#xa5;" horiz-adv-x="650" 
d="M396 0h-142v298h-179v85h163l-32 51h-131v85h83l-143 231h163l146 -244h2l147 244h162l-139 -231h79v-85h-131l-31 -51h162v-85h-179v-298z" />
    <glyph glyph-name="brokenbar" unicode="&#xa6;" horiz-adv-x="222" 
d="M162 341h-102v290h102v-290zM162 -50h-102v289h102v-289z" />
    <glyph glyph-name="section" unicode="&#xa7;" horiz-adv-x="576" 
d="M381 15q0 32 -26.5 51.5t-65.5 19.5q-109 0 -174 54t-65 150q0 78 74 143q-36 32 -55 63t-19 75q0 94 65 145t172 51q105 0 168 -53t63 -149h-137q0 78 -94 78q-92 0 -92 -78q0 -32 26.5 -51.5t65.5 -19.5q109 0 174 -54t65 -150q0 -78 -74 -143q36 -32 55 -63t19 -75
q0 -94 -65 -145t-172 -51q-105 0 -168 53t-63 149h137q0 -78 94 -78q92 0 92 78zM287 373q-43 0 -67.5 -23t-24.5 -60t25 -60t69 -23q43 0 67.5 23t24.5 60t-25 60t-69 23z" />
    <glyph glyph-name="dieresis" unicode="&#xa8;" horiz-adv-x="330" 
d="M117 716q0 -21 -15.5 -36t-35.5 -15q-22 0 -36.5 15t-14.5 36q0 22 14.5 36.5t36.5 14.5q21 0 36 -15t15 -36zM315 716q0 -21 -14.5 -36t-36.5 -15q-21 0 -36 15t-15 36q0 22 15 36.5t36 14.5q22 0 36.5 -14.5t14.5 -36.5z" />
    <glyph glyph-name="copyright" unicode="&#xa9;" horiz-adv-x="693" 
d="M217 290q0 -54 37.5 -93.5t91.5 -39.5q55 0 93 40l53 -53q-60 -60 -146 -60q-85 0 -145 60t-60 146q0 85 60 145t145 60q86 0 146 -60l-53 -53q-38 40 -93 40q-54 0 -91.5 -39t-37.5 -93zM615 290q0 112 -78 191.5t-191 79.5q-111 0 -189.5 -79.5t-78.5 -191.5t78.5 -192
t189.5 -80q113 0 191 80t78 192zM653 290q0 -128 -89.5 -217.5t-217.5 -89.5q-127 0 -216.5 90t-89.5 217t89.5 216.5t216.5 89.5t217 -89.5t90 -216.5z" />
    <glyph glyph-name="ordfeminine" unicode="&#xaa;" horiz-adv-x="375" 
d="M315 668v-199h-71v42h-1q-33 -51 -89 -51q-114 0 -114 96q0 91 117 91h87v21q0 25 -14 33t-45 8q-30 0 -44.5 -8.5t-14.5 -32.5h-68q0 49 34 74t93 25q60 0 95 -25t35 -74zM244 570v21h-87q-43 0 -43 -33q0 -19 12 -26.5t44 -7.5q34 0 54 13.5t20 32.5z" />
    <glyph glyph-name="guillemotleft" unicode="&#xab;" horiz-adv-x="507" 
d="M40 290l213 212v-144l-75 -66v-4l75 -67v-144zM254 290l213 212v-144l-75 -66v-4l75 -67v-144z" />
    <glyph glyph-name="logicalnot" unicode="&#xac;" horiz-adv-x="444" 
d="M384 171h-102v67h-222v102h324v-169z" />
    <glyph glyph-name="registered" unicode="&#xae;" horiz-adv-x="319" 
d="M279 648q0 -49 -35 -84.5t-84 -35.5q-50 0 -85 35t-35 85q0 49 35.5 84t84.5 35t84 -35t35 -84zM264 648q0 44 -30.5 74.5t-73.5 30.5q-44 0 -74.5 -30.5t-30.5 -74.5t30.5 -75t74.5 -31q43 0 73.5 31t30.5 75zM224 573h-31l-28 56h-33v-56h-27v153h69q21 0 35.5 -14
t14.5 -34q0 -31 -30 -46zM132 656h42q21 0 21 22q0 20 -21 20h-42v-42z" />
    <glyph glyph-name="macron" unicode="&#xaf;" horiz-adv-x="307" 
d="M247 750v-78h-187v78h187z" />
    <glyph glyph-name="degree" unicode="&#xb0;" horiz-adv-x="308" 
d="M196 666q0 17 -12 29.5t-30 12.5q-17 0 -29.5 -12.5t-12.5 -29.5q0 -18 12.5 -30t29.5 -12q18 0 30 12t12 30zM258 666q0 -42 -30.5 -71.5t-73.5 -29.5q-42 0 -73 29.5t-31 71.5t31 71.5t73 29.5q43 0 73.5 -29.5t30.5 -71.5z" />
    <glyph glyph-name="plusminus" unicode="&#xb1;" horiz-adv-x="680" 
d="M290 324h-240v102h240v153h102v-153h238v-102h-238v-153h-102v153zM50 102h580v-102h-580v102z" />
    <glyph glyph-name="twosuperior" unicode="&#xb2;" horiz-adv-x="338" 
d="M248 536l-96 -92v-1h135v-68h-237v68l154 144q20 20 20 50q0 26 -14.5 42t-42.5 16q-27 0 -42 -18t-15 -45v-16h-70v16q0 56 34.5 91t92.5 35q59 0 95 -33t36 -88q0 -53 -50 -101z" />
    <glyph glyph-name="threesuperior" unicode="&#xb3;" horiz-adv-x="351" 
d="M175 605q49 0 49 46q0 45 -49 45t-49 -48h-73v4q0 51 32 79t90 28q123 0 123 -104q0 -59 -50 -80v-2q63 -24 63 -93q0 -56 -35.5 -84.5t-100.5 -28.5q-64 0 -99.5 30.5t-35.5 84.5v4h73q0 -56 62 -56t62 54t-62 54h-26v67h26z" />
    <glyph glyph-name="acute" unicode="&#xb4;" horiz-adv-x="351" 
d="M261 767v-83l-171 -42v66z" />
    <glyph glyph-name="mu" unicode="&#xb5;" horiz-adv-x="657" 
d="M60 -171v750h142v-338q0 -53 37 -90.5t89 -37.5q53 0 90 37.5t37 90.5v338h142v-579h-131v83h-2q-24 -44 -70 -72t-109 -28q-42 0 -83 31v-185h-142z" />
    <glyph glyph-name="paragraph" unicode="&#xb6;" horiz-adv-x="606" 
d="M25 546q0 88 62.5 146t152.5 58h306v-750h-102v614h-67v-614h-102v340h-35q-90 0 -152.5 59t-62.5 147zM173 546q0 -29 19.5 -49.5t47.5 -20.5h35v138h-35q-28 0 -47.5 -20t-19.5 -48z" />
    <glyph glyph-name="periodcentered" unicode="&#xb7;" horiz-adv-x="274" 
d="M112 213q-32 0 -54.5 22.5t-22.5 54.5t22.5 54.5t54.5 22.5t54.5 -22.5t22.5 -54.5t-22.5 -54.5t-54.5 -22.5z" />
    <glyph glyph-name="cedilla" unicode="&#xb8;" horiz-adv-x="379" 
d="M157 -97l-43 8l14 89h46l-7 -45q45 15 78.5 -8.5t33.5 -67.5q0 -39 -24.5 -61t-65.5 -22q-39 0 -64 22.5t-25 60.5h49q0 -17 11.5 -28.5t28.5 -11.5t28.5 11.5t11.5 28.5q0 16 -11.5 27t-28.5 11q-22 0 -32 -14z" />
    <glyph glyph-name="onesuperior" unicode="&#xb9;" horiz-adv-x="232" 
d="M40 640v68l71 42h71v-375h-71v302l-2 1z" />
    <glyph glyph-name="ordmasculine" unicode="&#xba;" horiz-adv-x="397" 
d="M283 615q0 39 -23 64.5t-61 25.5t-61.5 -25.5t-23.5 -64.5q0 -40 23.5 -65.5t61.5 -25.5t61 25.5t23 65.5zM357 615q0 -66 -46 -110t-112 -44q-67 0 -113 44t-46 110q0 65 46.5 109t112.5 44t112 -44t46 -109z" />
    <glyph glyph-name="guillemotright" unicode="&#xbb;" horiz-adv-x="507" 
d="M254 502l213 -212l-213 -213v144l75 67v4l-75 66v144zM40 502l213 -212l-213 -213v144l75 67v4l-75 66v144z" />
    <glyph glyph-name="onequarter" unicode="&#xbc;" horiz-adv-x="638" 
d="M124 5l317 763l55 -21l-319 -763zM40 640v68l71 42h71v-375h-71v302l-2 1zM340 68v68l164 239h71v-239h42v-68h-42v-68h-71v68h-164zM503 266l-86 -128v-2h87v130h-1z" />
    <glyph glyph-name="onehalf" unicode="&#xbd;" horiz-adv-x="683" 
d="M124 5l317 763l55 -21l-319 -763zM40 640v68l71 42h71v-375h-71v302l-2 1zM593 161l-96 -92v-1h135v-68h-237v68l154 144q20 20 20 50q0 26 -14.5 42t-42.5 16q-27 0 -42 -18t-15 -45v-16h-70v16q0 56 34.5 91t92.5 35q59 0 95 -33t36 -88q0 -53 -50 -101z" />
    <glyph glyph-name="threequarters" unicode="&#xbe;" horiz-adv-x="716" 
d="M211 5l317 763l55 -21l-319 -763zM419 68v68l164 239h71v-239h42v-68h-42v-68h-71v68h-164zM582 266l-86 -128v-2h87v130h-1zM175 605q49 0 49 46q0 45 -49 45t-49 -48h-73v4q0 51 32 79t90 28q123 0 123 -104q0 -59 -50 -80v-2q63 -24 63 -93q0 -56 -35.5 -84.5
t-100.5 -28.5q-64 0 -99.5 30.5t-35.5 84.5v4h73q0 -56 62 -56t62 54t-62 54h-26v67h26z" />
    <glyph glyph-name="questiondown" unicode="&#xbf;" horiz-adv-x="611" 
d="M306 -17q-111 0 -188.5 72.5t-77.5 181.5q0 93 58 160.5t141 82.5v70h134v-193h-67q-49 0 -83.5 -35t-34.5 -85q0 -49 34.5 -83.5t83.5 -34.5t85 34.5t36 83.5h144q0 -109 -77 -181.5t-188 -72.5zM230 682q0 32 22.5 54.5t53.5 22.5q32 0 54.5 -22.5t22.5 -54.5
t-22.5 -54.5t-54.5 -22.5q-31 0 -53.5 22.5t-22.5 54.5z" />
    <glyph glyph-name="Agrave" unicode="&#xc0;" horiz-adv-x="712" 
d="M271 827v83l171 -59v-66zM279 750h154l264 -750h-153l-47 136h-282l-47 -136h-153zM264 272h184l-88 306h-8z" />
    <glyph glyph-name="Aacute" unicode="&#xc1;" horiz-adv-x="712" 
d="M442 910v-83l-171 -42v66zM279 750h154l264 -750h-153l-47 136h-282l-47 -136h-153zM264 272h184l-88 306h-8z" />
    <glyph glyph-name="Acircumflex" unicode="&#xc2;" horiz-adv-x="712" 
d="M279 750h154l264 -750h-153l-47 136h-282l-47 -136h-153zM264 272h184l-88 306h-8zM323 892h66l80 -102h-64l-47 45h-4l-47 -45h-64z" />
    <glyph glyph-name="Atilde" unicode="&#xc3;" horiz-adv-x="712" 
d="M416 850h54q0 -30 -21.5 -52t-51.5 -22q-43 0 -65 38q-4 11 -16 11q-19 0 -19 -19h-54q0 30 21.5 52t51.5 22q44 0 63 -39q6 -10 18 -10q19 0 19 19zM279 750h154l264 -750h-153l-47 136h-282l-47 -136h-153zM264 272h184l-88 306h-8z" />
    <glyph glyph-name="Adieresis" unicode="&#xc4;" horiz-adv-x="712" 
d="M307 839q0 -21 -15.5 -36t-35.5 -15q-22 0 -36.5 15t-14.5 36q0 22 14.5 36.5t36.5 14.5q21 0 36 -15t15 -36zM505 839q0 -21 -14.5 -36t-36.5 -15q-21 0 -36 15t-15 36q0 22 15 36.5t36 14.5q22 0 36.5 -14.5t14.5 -36.5zM279 750h154l264 -750h-153l-47 136h-282
l-47 -136h-153zM264 272h184l-88 306h-8z" />
    <glyph glyph-name="Aring" unicode="&#xc5;" horiz-adv-x="712" 
d="M383 852q0 11 -8 18.5t-19 7.5t-19 -7.5t-8 -18.5q0 -12 8 -20t19 -8t19 8t8 20zM432 852q0 -30 -23 -52t-53 -22t-53 22t-23 52t23 51t53 21t53 -21t23 -51zM279 750h154l264 -750h-153l-47 136h-282l-47 -136h-153zM264 272h184l-88 306h-8z" />
    <glyph glyph-name="AE" unicode="&#xc6;" horiz-adv-x="1089" 
d="M645 307v-171h409v-136h-551v136h-240l-90 -136h-173l497 750h557v-137h-409v-169h341v-137h-341zM503 272v250h-4l-160 -250h164z" />
    <glyph glyph-name="Ccedilla" unicode="&#xc7;" horiz-adv-x="849" 
d="M405 -97l-43 8l12 77q-146 21 -242.5 129t-96.5 258q0 166 117 279t285 113q134 0 241 -77.5t136 -203.5h-146q-33 66 -95 108.5t-136 42.5q-105 0 -180 -78t-75 -184q0 -107 75 -184.5t180 -77.5q74 0 136 42t95 109h146q-29 -126 -136 -203.5t-241 -77.5q-3 0 -9 0.5
t-9 0.5l-4 -29q45 15 78.5 -8.5t33.5 -67.5q0 -39 -24.5 -61t-65.5 -22q-39 0 -64 22.5t-25 60.5h49q0 -17 11.5 -28.5t28.5 -11.5t28.5 11.5t11.5 28.5q0 16 -11.5 27t-28.5 11q-22 0 -32 -14z" />
    <glyph glyph-name="Egrave" unicode="&#xc8;" horiz-adv-x="646" 
d="M252 827v83l171 -59v-66zM202 136h409v-136h-551v750h551v-136h-409v-170h340v-136h-340v-172z" />
    <glyph glyph-name="Eacute" unicode="&#xc9;" horiz-adv-x="646" 
d="M423 910v-83l-171 -42v66zM202 136h409v-136h-551v750h551v-136h-409v-170h340v-136h-340v-172z" />
    <glyph glyph-name="Ecircumflex" unicode="&#xca;" horiz-adv-x="646" 
d="M202 136h409v-136h-551v750h551v-136h-409v-170h340v-136h-340v-172zM303 892h66l80 -102h-64l-47 45h-4l-47 -45h-64z" />
    <glyph glyph-name="Edieresis" unicode="&#xcb;" horiz-adv-x="646" 
d="M202 136h409v-136h-551v750h551v-136h-409v-170h340v-136h-340v-172zM278 839q0 -21 -15.5 -36t-35.5 -15q-22 0 -36.5 15t-14.5 36q0 22 14.5 36.5t36.5 14.5q21 0 36 -15t15 -36zM476 839q0 -21 -14.5 -36t-36.5 -15q-21 0 -36 15t-15 36q0 22 15 36.5t36 14.5
q22 0 36.5 -14.5t14.5 -36.5z" />
    <glyph glyph-name="Igrave" unicode="&#xcc;" 
d="M60 0v750h142v-750h-142zM46 827v83l171 -59v-66z" />
    <glyph glyph-name="Iacute" unicode="&#xcd;" 
d="M60 0v750h142v-750h-142zM217 910v-83l-171 -42v66z" />
    <glyph glyph-name="Icircumflex" unicode="&#xce;" 
d="M60 0v750h142v-750h-142zM98 892h66l80 -102h-64l-47 45h-4l-47 -45h-64z" />
    <glyph glyph-name="Idieresis" unicode="&#xcf;" 
d="M60 0v750h142v-750h-142zM89 839q0 -21 -15.5 -36t-35.5 -15q-22 0 -36.5 15t-14.5 36q0 22 14.5 36.5t36.5 14.5q21 0 36 -15t15 -36zM275 839q0 -21 -14.5 -36t-36.5 -15q-21 0 -36 15t-15 36q0 22 15 36.5t36 14.5q22 0 36.5 -14.5t14.5 -36.5z" />
    <glyph glyph-name="Eth" unicode="&#xd0;" horiz-adv-x="761" 
d="M80 750h261q164 0 274.5 -106.5t110.5 -268.5t-110.5 -268.5t-274.5 -106.5h-261v307h-60v137h60v306zM579 375q0 98 -70 168t-168 70h-119v-169h156v-137h-156v-171h119q98 0 168 70t70 169z" />
    <glyph glyph-name="Ntilde" unicode="&#xd1;" horiz-adv-x="709" 
d="M415 830h54q0 -30 -21.5 -52t-51.5 -22q-43 0 -65 38q-4 11 -16 11q-19 0 -19 -19h-54q0 30 21.5 52t51.5 22q44 0 63 -39q6 -10 18 -10q19 0 19 19zM649 750v-750h-142l-303 500h-3l1 -500h-142v750h142l303 -501h3l-1 501h142z" />
    <glyph glyph-name="Ograve" unicode="&#xd2;" horiz-adv-x="874" 
d="M351 827v83l171 -59v-66zM691 375q0 106 -74 182t-180 76q-105 0 -179.5 -76t-74.5 -182q0 -107 74 -182.5t180 -75.5t180 75.5t74 182.5zM839 375q0 -166 -117.5 -279t-284.5 -113q-168 0 -285 113t-117 279t117 279t285 113q167 0 284.5 -113t117.5 -279z" />
    <glyph glyph-name="Oacute" unicode="&#xd3;" horiz-adv-x="874" 
d="M522 910v-83l-171 -42v66zM691 375q0 106 -74 182t-180 76q-105 0 -179.5 -76t-74.5 -182q0 -107 74 -182.5t180 -75.5t180 75.5t74 182.5zM839 375q0 -166 -117.5 -279t-284.5 -113q-168 0 -285 113t-117 279t117 279t285 113q167 0 284.5 -113t117.5 -279z" />
    <glyph glyph-name="Ocircumflex" unicode="&#xd4;" horiz-adv-x="874" 
d="M691 375q0 106 -74 182t-180 76q-105 0 -179.5 -76t-74.5 -182q0 -107 74 -182.5t180 -75.5t180 75.5t74 182.5zM839 375q0 -166 -117.5 -279t-284.5 -113q-168 0 -285 113t-117 279t117 279t285 113q167 0 284.5 -113t117.5 -279zM404 892h66l80 -102h-64l-47 45h-4
l-47 -45h-64z" />
    <glyph glyph-name="Otilde" unicode="&#xd5;" horiz-adv-x="874" 
d="M496 860h54q0 -30 -21.5 -52t-51.5 -22q-43 0 -65 38q-4 11 -16 11q-19 0 -19 -19h-54q0 30 21.5 52t51.5 22q44 0 63 -39q6 -10 18 -10q19 0 19 19zM691 375q0 106 -74 182t-180 76q-105 0 -179.5 -76t-74.5 -182q0 -107 74 -182.5t180 -75.5t180 75.5t74 182.5z
M839 375q0 -166 -117.5 -279t-284.5 -113q-168 0 -285 113t-117 279t117 279t285 113q167 0 284.5 -113t117.5 -279z" />
    <glyph glyph-name="Odieresis" unicode="&#xd6;" horiz-adv-x="874" 
d="M388 839q0 -21 -15.5 -36t-35.5 -15q-22 0 -36.5 15t-14.5 36q0 22 14.5 36.5t36.5 14.5q21 0 36 -15t15 -36zM586 839q0 -21 -14.5 -36t-36.5 -15q-21 0 -36 15t-15 36q0 22 15 36.5t36 14.5q22 0 36.5 -14.5t14.5 -36.5zM691 375q0 106 -74 182t-180 76
q-105 0 -179.5 -76t-74.5 -182q0 -107 74 -182.5t180 -75.5t180 75.5t74 182.5zM839 375q0 -166 -117.5 -279t-284.5 -113q-168 0 -285 113t-117 279t117 279t285 113q167 0 284.5 -113t117.5 -279z" />
    <glyph glyph-name="multiply" unicode="&#xd7;" horiz-adv-x="659" 
d="M39 70l220 220l-219 219l72 72l219 -219l218 218l72 -72l-218 -218l218 -218l-72 -73l-218 219l-220 -220z" />
    <glyph glyph-name="Oslash" unicode="&#xd8;" horiz-adv-x="884" 
d="M50 55l75 75q-85 107 -85 245q0 166 117 279t285 113q135 0 242 -78l78 78l72 -72l-76 -76q86 -105 86 -244q0 -166 -117.5 -279t-284.5 -113q-136 0 -243 77l-77 -77zM696 375q0 80 -41 141l-355 -355q67 -44 142 -44q106 0 180 75.5t74 182.5zM188 375q0 -80 41 -141
l354 354q-71 45 -141 45q-105 0 -179.5 -76t-74.5 -182z" />
    <glyph glyph-name="Ugrave" unicode="&#xd9;" horiz-adv-x="718" 
d="M274 827v83l171 -59v-66zM658 750v-489q0 -127 -83.5 -202.5t-215.5 -75.5t-215.5 75t-83.5 203v489h142v-492q0 -66 44.5 -105.5t112.5 -39.5t112.5 39.5t44.5 105.5v492h142z" />
    <glyph glyph-name="Uacute" unicode="&#xda;" horiz-adv-x="718" 
d="M445 910v-83l-171 -42v66zM658 750v-489q0 -127 -83.5 -202.5t-215.5 -75.5t-215.5 75t-83.5 203v489h142v-492q0 -66 44.5 -105.5t112.5 -39.5t112.5 39.5t44.5 105.5v492h142z" />
    <glyph glyph-name="Ucircumflex" unicode="&#xdb;" horiz-adv-x="718" 
d="M658 750v-489q0 -127 -83.5 -202.5t-215.5 -75.5t-215.5 75t-83.5 203v489h142v-492q0 -66 44.5 -105.5t112.5 -39.5t112.5 39.5t44.5 105.5v492h142zM325 892h66l80 -102h-64l-47 45h-4l-47 -45h-64z" />
    <glyph glyph-name="Udieresis" unicode="&#xdc;" horiz-adv-x="718" 
d="M309 839q0 -21 -15.5 -36t-35.5 -15q-22 0 -36.5 15t-14.5 36q0 22 14.5 36.5t36.5 14.5q21 0 36 -15t15 -36zM507 839q0 -21 -14.5 -36t-36.5 -15q-21 0 -36 15t-15 36q0 22 15 36.5t36 14.5q22 0 36.5 -14.5t14.5 -36.5zM658 750v-489q0 -127 -83.5 -202.5
t-215.5 -75.5t-215.5 75t-83.5 203v489h142v-492q0 -66 44.5 -105.5t112.5 -39.5t112.5 39.5t44.5 105.5v492h142z" />
    <glyph glyph-name="Yacute" unicode="&#xdd;" horiz-adv-x="715" 
d="M441 910v-83l-170 -42v66zM532 750h168l-270 -435v-315h-142v315l-273 435h168l174 -291h4z" />
    <glyph glyph-name="Thorn" unicode="&#xde;" horiz-adv-x="650" 
d="M614 447q0 -86 -61.5 -147t-147.5 -61h-203v-239h-142v750h142v-93h203q86 0 147.5 -61.5t61.5 -148.5zM202 375h191q31 0 52 21.5t21 50.5q0 31 -21 52.5t-52 21.5h-191v-146z" />
    <glyph glyph-name="germandbls" unicode="&#xdf;" horiz-adv-x="610" 
d="M570 230q0 -100 -71.5 -165t-176.5 -65h-69v136h69q42 0 71 30t29 72t-29 72t-71 30h-69v136h25q33 0 55 22.5t22 55.5q0 32 -22 54.5t-55 22.5q-29 0 -51 -20t-25 -48v-563h-142v563q0 84 65 144t153 60q95 0 159.5 -57t64.5 -147q0 -89 -71 -133v-3q61 -15 100 -69
t39 -128z" />
    <glyph glyph-name="agrave" unicode="&#xe0;" horiz-adv-x="645" 
d="M240 684v83l171 -59v-66zM585 399v-399h-142v84l-3 1q-64 -102 -178 -102q-227 0 -227 191q0 88 58 135t175 47h175v43q0 49 -28.5 65.5t-89.5 16.5q-60 0 -89.5 -17t-29.5 -65h-136q0 98 68 147.5t187 49.5q120 0 190 -49.5t70 -147.5zM443 203v42h-175q-86 0 -86 -67
q0 -36 24 -51.5t88 -15.5q68 0 108.5 26.5t40.5 65.5z" />
    <glyph glyph-name="aacute" unicode="&#xe1;" horiz-adv-x="645" 
d="M411 767v-83l-171 -42v66zM585 399v-399h-142v84l-3 1q-64 -102 -178 -102q-227 0 -227 191q0 88 58 135t175 47h175v43q0 49 -28.5 65.5t-89.5 16.5q-60 0 -89.5 -17t-29.5 -65h-136q0 98 68 147.5t187 49.5q120 0 190 -49.5t70 -147.5zM443 203v42h-175q-86 0 -86 -67
q0 -36 24 -51.5t88 -15.5q68 0 108.5 26.5t40.5 65.5z" />
    <glyph glyph-name="acircumflex" unicode="&#xe2;" horiz-adv-x="645" 
d="M292 782h66l80 -102h-64l-47 45h-4l-47 -45h-64zM585 399v-399h-142v84l-3 1q-64 -102 -178 -102q-227 0 -227 191q0 88 58 135t175 47h175v43q0 49 -28.5 65.5t-89.5 16.5q-60 0 -89.5 -17t-29.5 -65h-136q0 98 68 147.5t187 49.5q120 0 190 -49.5t70 -147.5zM443 203
v42h-175q-86 0 -86 -67q0 -36 24 -51.5t88 -15.5q68 0 108.5 26.5t40.5 65.5z" />
    <glyph glyph-name="atilde" unicode="&#xe3;" horiz-adv-x="645" 
d="M386 737h54q0 -30 -21.5 -52t-51.5 -22q-43 0 -65 38q-4 11 -16 11q-19 0 -19 -19h-54q0 30 21.5 52t51.5 22q44 0 63 -39q6 -10 18 -10q19 0 19 19zM585 399v-399h-142v84l-3 1q-64 -102 -178 -102q-227 0 -227 191q0 88 58 135t175 47h175v43q0 49 -28.5 65.5
t-89.5 16.5q-60 0 -89.5 -17t-29.5 -65h-136q0 98 68 147.5t187 49.5q120 0 190 -49.5t70 -147.5zM443 203v42h-175q-86 0 -86 -67q0 -36 24 -51.5t88 -15.5q68 0 108.5 26.5t40.5 65.5z" />
    <glyph glyph-name="adieresis" unicode="&#xe4;" horiz-adv-x="645" 
d="M277 716q0 -21 -15.5 -36t-35.5 -15q-22 0 -36.5 15t-14.5 36q0 22 14.5 36.5t36.5 14.5q21 0 36 -15t15 -36zM475 716q0 -21 -14.5 -36t-36.5 -15q-21 0 -36 15t-15 36q0 22 15 36.5t36 14.5q22 0 36.5 -14.5t14.5 -36.5zM585 399v-399h-142v84l-3 1q-64 -102 -178 -102
q-227 0 -227 191q0 88 58 135t175 47h175v43q0 49 -28.5 65.5t-89.5 16.5q-60 0 -89.5 -17t-29.5 -65h-136q0 98 68 147.5t187 49.5q120 0 190 -49.5t70 -147.5zM443 203v42h-175q-86 0 -86 -67q0 -36 24 -51.5t88 -15.5q68 0 108.5 26.5t40.5 65.5z" />
    <glyph glyph-name="aring" unicode="&#xe5;" horiz-adv-x="645" 
d="M352 728q0 11 -8 18.5t-19 7.5t-19 -7.5t-8 -18.5q0 -12 8 -20t19 -8t19 8t8 20zM401 728q0 -30 -23 -52t-53 -22t-53 22t-23 52t23 51t53 21t53 -21t23 -51zM585 399v-399h-142v84l-3 1q-64 -102 -178 -102q-227 0 -227 191q0 88 58 135t175 47h175v43q0 49 -28.5 65.5
t-89.5 16.5q-60 0 -89.5 -17t-29.5 -65h-136q0 98 68 147.5t187 49.5q120 0 190 -49.5t70 -147.5zM443 203v42h-175q-86 0 -86 -67q0 -36 24 -51.5t88 -15.5q68 0 108.5 26.5t40.5 65.5z" />
    <glyph glyph-name="ae" unicode="&#xe6;" horiz-adv-x="1131" 
d="M1091 294q0 -30 -8 -65h-467q12 -50 57.5 -86.5t104.5 -36.5q43 0 77 19.5t53 48.5h154q-31 -87 -109 -139t-175 -52q-114 0 -190 93l-3 -1v-75h-142v84l-3 1q-64 -102 -178 -102q-227 0 -227 189q0 180 233 180h175v47q0 49 -28.5 65.5t-89.5 16.5q-60 0 -89.5 -17
t-29.5 -65h-136q0 98 68 147.5t187 49.5q177 0 236 -101q80 101 219 101q129 0 220 -87.5t91 -214.5zM618 352h321q-11 54 -53.5 89t-105.5 35t-107 -35t-55 -89zM443 203v38h-175q-86 0 -86 -65q0 -36 24 -50.5t88 -14.5q68 0 108.5 26.5t40.5 65.5z" />
    <glyph glyph-name="ccedilla" unicode="&#xe7;" horiz-adv-x="690" 
d="M325 -97l-43 8l12 78q-115 19 -184.5 101.5t-69.5 199.5q0 133 89 220t228 87q124 0 202.5 -63.5t100.5 -174.5h-145q-21 51 -60.5 83t-97.5 32q-77 0 -123.5 -52t-46.5 -132t46.5 -132t123.5 -52q58 0 97.5 32t60.5 83h145q-21 -111 -100 -174.5t-203 -63.5q-12 0 -18 1
l-4 -29q45 15 78.5 -8.5t33.5 -67.5q0 -39 -24.5 -61t-65.5 -22q-39 0 -64 22.5t-25 60.5h49q0 -17 11.5 -28.5t28.5 -11.5t28.5 11.5t11.5 28.5q0 16 -11.5 27t-28.5 11q-22 0 -32 -14z" />
    <glyph glyph-name="egrave" unicode="&#xe8;" horiz-adv-x="707" 
d="M269 684v83l171 -59v-66zM667 290q0 -30 -8 -65h-467q12 -49 57.5 -84t104.5 -35q43 0 77 19.5t53 48.5h154q-31 -87 -109 -139t-175 -52q-131 0 -222.5 88.5t-91.5 218.5t92 218t224 88q129 0 220 -89t91 -217zM194 348h321q-11 55 -53.5 91.5t-105.5 36.5t-107 -37
t-55 -91z" />
    <glyph glyph-name="eacute" unicode="&#xe9;" horiz-adv-x="707" 
d="M439 767v-83l-171 -42v66zM667 290q0 -30 -8 -65h-467q12 -49 57.5 -84t104.5 -35q43 0 77 19.5t53 48.5h154q-31 -87 -109 -139t-175 -52q-131 0 -222.5 88.5t-91.5 218.5t92 218t224 88q129 0 220 -89t91 -217zM194 348h321q-11 55 -53.5 91.5t-105.5 36.5t-107 -37
t-55 -91z" />
    <glyph glyph-name="ecircumflex" unicode="&#xea;" horiz-adv-x="707" 
d="M667 290q0 -30 -8 -65h-467q12 -49 57.5 -84t104.5 -35q43 0 77 19.5t53 48.5h154q-31 -87 -109 -139t-175 -52q-131 0 -222.5 88.5t-91.5 218.5t92 218t224 88q129 0 220 -89t91 -217zM194 348h321q-11 55 -53.5 91.5t-105.5 36.5t-107 -37t-55 -91zM323 782h66l80 -102
h-64l-47 45h-4l-47 -45h-64z" />
    <glyph glyph-name="edieresis" unicode="&#xeb;" horiz-adv-x="707" 
d="M308 716q0 -21 -15.5 -36t-35.5 -15q-22 0 -36.5 15t-14.5 36q0 22 14.5 36.5t36.5 14.5q21 0 36 -15t15 -36zM506 716q0 -21 -14.5 -36t-36.5 -15q-21 0 -36 15t-15 36q0 22 15 36.5t36 14.5q22 0 36.5 -14.5t14.5 -36.5zM667 290q0 -30 -8 -65h-467q12 -49 57.5 -84
t104.5 -35q43 0 77 19.5t53 48.5h154q-31 -87 -109 -139t-175 -52q-131 0 -222.5 88.5t-91.5 218.5t92 218t224 88q129 0 220 -89t91 -217zM194 348h321q-11 55 -53.5 91.5t-105.5 36.5t-107 -37t-55 -91z" />
    <glyph glyph-name="igrave" unicode="&#xec;" 
d="M46 684v83l171 -59v-66zM60 579h142v-579h-142v579z" />
    <glyph glyph-name="iacute" unicode="&#xed;" 
d="M216 767v-83l-170 -42v66zM60 579h142v-579h-142v579z" />
    <glyph glyph-name="icircumflex" unicode="&#xee;" 
d="M60 579h142v-579h-142v579zM98 782h66l80 -102h-64l-47 45h-4l-47 -45h-64z" />
    <glyph glyph-name="idieresis" unicode="&#xef;" 
d="M88 716q0 -21 -15.5 -36t-35.5 -15q-22 0 -36.5 15t-14.5 36q0 22 14.5 36.5t36.5 14.5q21 0 36 -15t15 -36zM275 716q0 -21 -14.5 -36t-36.5 -15q-21 0 -36 15t-15 36q0 22 15 36.5t36 14.5q22 0 36.5 -14.5t14.5 -36.5zM60 579h142v-579h-142v579z" />
    <glyph glyph-name="eth" unicode="&#xf0;" horiz-adv-x="704" 
d="M268 558l-33 40l49 41l-114 111h193l23 -25l41 35l33 -40l-38 -32l106 -110q63 -68 87 -109q49 -84 49 -188q0 -130 -89.5 -214t-222.5 -84q-131 0 -220 83t-92 215q0 110 78 184t184 74q55 0 113 -30h3l-21 20l-76 74zM516 281q0 67 -48 114.5t-116 47.5
q-67 0 -115.5 -47.5t-48.5 -114.5t48.5 -114.5t115.5 -47.5q68 0 116 47.5t48 114.5z" />
    <glyph glyph-name="ntilde" unicode="&#xf1;" horiz-adv-x="657" 
d="M411 737h54q0 -30 -21.5 -52t-51.5 -22q-43 0 -65 38q-4 11 -16 11q-19 0 -19 -19h-54q0 30 21.5 52t51.5 22q44 0 63 -39q6 -10 18 -10q19 0 19 19zM202 0h-142v579h131v-83h2q24 44 70 72t109 28q100 0 162.5 -68.5t62.5 -177.5v-350h-142v338q0 53 -37 90.5t-89 37.5
q-53 0 -90 -37.5t-37 -90.5v-338z" />
    <glyph glyph-name="ograve" unicode="&#xf2;" horiz-adv-x="714" 
d="M272 684v83l171 -59v-66zM526 290q0 79 -46 129.5t-123 50.5q-76 0 -122.5 -51t-46.5 -129q0 -79 46.5 -130t122.5 -51q77 0 123 50.5t46 130.5zM674 290q0 -131 -92 -219t-225 -88q-132 0 -224.5 88t-92.5 219q0 130 92.5 218t224.5 88q133 0 225 -88t92 -218z" />
    <glyph glyph-name="oacute" unicode="&#xf3;" horiz-adv-x="714" 
d="M444 767v-83l-171 -42v66zM526 290q0 79 -46 129.5t-123 50.5q-76 0 -122.5 -51t-46.5 -129q0 -79 46.5 -130t122.5 -51q77 0 123 50.5t46 130.5zM674 290q0 -131 -92 -219t-225 -88q-132 0 -224.5 88t-92.5 219q0 130 92.5 218t224.5 88q133 0 225 -88t92 -218z" />
    <glyph glyph-name="ocircumflex" unicode="&#xf4;" horiz-adv-x="714" 
d="M526 290q0 79 -46 129.5t-123 50.5q-76 0 -122.5 -51t-46.5 -129q0 -79 46.5 -130t122.5 -51q77 0 123 50.5t46 130.5zM674 290q0 -131 -92 -219t-225 -88q-132 0 -224.5 88t-92.5 219q0 130 92.5 218t224.5 88q133 0 225 -88t92 -218zM323 782h66l80 -102h-64l-47 45h-4
l-47 -45h-64z" />
    <glyph glyph-name="otilde" unicode="&#xf5;" horiz-adv-x="714" 
d="M416 737h54q0 -30 -21.5 -52t-51.5 -22q-43 0 -65 38q-4 11 -16 11q-19 0 -19 -19h-54q0 30 21.5 52t51.5 22q44 0 63 -39q6 -10 18 -10q19 0 19 19zM526 290q0 79 -46 129.5t-123 50.5q-76 0 -122.5 -51t-46.5 -129q0 -79 46.5 -130t122.5 -51q77 0 123 50.5t46 130.5z
M674 290q0 -131 -92 -219t-225 -88q-132 0 -224.5 88t-92.5 219q0 130 92.5 218t224.5 88q133 0 225 -88t92 -218z" />
    <glyph glyph-name="odieresis" unicode="&#xf6;" horiz-adv-x="714" 
d="M308 716q0 -21 -15.5 -36t-35.5 -15q-22 0 -36.5 15t-14.5 36q0 22 14.5 36.5t36.5 14.5q21 0 36 -15t15 -36zM506 716q0 -21 -14.5 -36t-36.5 -15q-21 0 -36 15t-15 36q0 22 15 36.5t36 14.5q22 0 36.5 -14.5t14.5 -36.5zM526 290q0 79 -46 129.5t-123 50.5
q-76 0 -122.5 -51t-46.5 -129q0 -79 46.5 -130t122.5 -51q77 0 123 50.5t46 130.5zM674 290q0 -131 -92 -219t-225 -88q-132 0 -224.5 88t-92.5 219q0 130 92.5 218t224.5 88q133 0 225 -88t92 -218z" />
    <glyph glyph-name="divide" unicode="&#xf7;" horiz-adv-x="679" 
d="M408 60q0 -29 -20 -48.5t-49 -19.5q-28 0 -47.5 20t-19.5 48t19.5 48t47.5 20q29 0 49 -19.5t20 -48.5zM272 518q0 29 19.5 49t47.5 20q29 0 49 -20t20 -49q0 -28 -20 -47.5t-49 -19.5q-28 0 -47.5 19.5t-19.5 47.5zM50 340h579v-102h-579v102z" />
    <glyph glyph-name="oslash" unicode="&#xf8;" horiz-adv-x="722" 
d="M678 290q0 -131 -92 -219t-225 -88q-100 0 -179 51l-51 -51l-72 73l48 48q-63 80 -63 186q0 130 92.5 218t224.5 88q103 0 183 -55l55 55l72 -73l-52 -52q59 -80 59 -181zM192 290q0 -49 16 -85l242 242q-41 23 -89 23q-76 0 -122.5 -51t-46.5 -129zM530 290q0 41 -14 78
l-239 -239q37 -20 84 -20q77 0 123 50.5t46 130.5z" />
    <glyph glyph-name="ugrave" unicode="&#xf9;" horiz-adv-x="657" 
d="M245 684v83l171 -59v-66zM455 579h142v-579h-131v83h-2q-24 -44 -70 -72t-109 -28q-100 0 -162.5 68.5t-62.5 177.5v350h142v-338q0 -53 37 -90.5t89 -37.5q53 0 90 37.5t37 90.5v338z" />
    <glyph glyph-name="uacute" unicode="&#xfa;" horiz-adv-x="657" 
d="M416 767v-83l-171 -42v66zM455 579h142v-579h-131v83h-2q-24 -44 -70 -72t-109 -28q-100 0 -162.5 68.5t-62.5 177.5v350h142v-338q0 -53 37 -90.5t89 -37.5q53 0 90 37.5t37 90.5v338z" />
    <glyph glyph-name="ucircumflex" unicode="&#xfb;" horiz-adv-x="657" 
d="M455 579h142v-579h-131v83h-2q-24 -44 -70 -72t-109 -28q-100 0 -162.5 68.5t-62.5 177.5v350h142v-338q0 -53 37 -90.5t89 -37.5q53 0 90 37.5t37 90.5v338zM295 782h66l80 -102h-64l-47 45h-4l-47 -45h-64z" />
    <glyph glyph-name="udieresis" unicode="&#xfc;" horiz-adv-x="657" 
d="M280 716q0 -21 -15.5 -36t-35.5 -15q-22 0 -36.5 15t-14.5 36q0 22 14.5 36.5t36.5 14.5q21 0 36 -15t15 -36zM478 716q0 -21 -14.5 -36t-36.5 -15q-21 0 -36 15t-15 36q0 22 15 36.5t36 14.5q22 0 36.5 -14.5t14.5 -36.5zM455 579h142v-579h-131v83h-2q-24 -44 -70 -72
t-109 -28q-100 0 -162.5 68.5t-62.5 177.5v350h142v-338q0 -53 37 -90.5t89 -37.5q53 0 90 37.5t37 90.5v338z" />
    <glyph glyph-name="yacute" unicode="&#xfd;" horiz-adv-x="615" 
d="M394 767v-83l-171 -42v66zM600 579l-290 -750h-146l71 184l-220 566h147l145 -377h2l144 377h147z" />
    <glyph glyph-name="thorn" unicode="&#xfe;" horiz-adv-x="728" 
d="M202 750v-268h2q36 54 81 84t112 30q122 0 206.5 -88t84.5 -219t-84.5 -218.5t-206.5 -87.5q-116 0 -193 101h-2v-255h-142v921h142zM202 289q0 -71 49.5 -123.5t119.5 -52.5t119.5 52.5t49.5 123.5t-49.5 124t-119.5 53t-119.5 -53t-49.5 -124z" />
    <glyph glyph-name="ydieresis" unicode="&#xff;" horiz-adv-x="615" 
d="M600 579l-290 -750h-146l71 184l-220 566h147l145 -377h2l144 377h147zM260 716q0 -21 -15.5 -36t-35.5 -15q-22 0 -36.5 15t-14.5 36q0 22 14.5 36.5t36.5 14.5q21 0 36 -15t15 -36zM458 716q0 -21 -14.5 -36t-36.5 -15q-21 0 -36 15t-15 36q0 22 15 36.5t36 14.5
q22 0 36.5 -14.5t14.5 -36.5z" />
    <glyph glyph-name="Amacron" unicode="&#x100;" horiz-adv-x="712" 
d="M279 750h154l264 -750h-153l-47 136h-282l-47 -136h-153zM264 272h184l-88 306h-8zM450 880v-78h-187v78h187z" />
    <glyph glyph-name="amacron" unicode="&#x101;" horiz-adv-x="645" 
d="M419 750v-78h-187v78h187zM585 399v-399h-142v84l-3 1q-64 -102 -178 -102q-227 0 -227 191q0 88 58 135t175 47h175v43q0 49 -28.5 65.5t-89.5 16.5q-60 0 -89.5 -17t-29.5 -65h-136q0 98 68 147.5t187 49.5q120 0 190 -49.5t70 -147.5zM443 203v42h-175q-86 0 -86 -67
q0 -36 24 -51.5t88 -15.5q68 0 108.5 26.5t40.5 65.5z" />
    <glyph glyph-name="Aogonek" unicode="&#x104;" horiz-adv-x="712" 
d="M279 750h154l264 -750h-55q-23 -2 -38 -18.5t-15 -39.5q0 -24 17 -41t41 -17q21 0 40 17v-63q-31 -26 -69 -26q-45 0 -76.5 31.5t-31.5 76.5q0 50 35 80l-48 136h-282l-47 -136h-153zM264 272h184l-88 306h-8z" />
    <glyph glyph-name="aogonek" unicode="&#x105;" horiz-adv-x="645" 
d="M585 399v-399h-45q-23 -2 -38 -18.5t-15 -39.5q0 -24 17 -41t41 -17q21 0 40 17v-63q-31 -26 -69 -26q-45 0 -76.5 31.5t-31.5 76.5q0 50 35 80v84l-3 1q-64 -102 -178 -102q-227 0 -227 191q0 88 58 135t175 47h175v43q0 49 -28.5 65.5t-89.5 16.5q-60 0 -89.5 -17
t-29.5 -65h-136q0 98 68 147.5t187 49.5q120 0 190 -49.5t70 -147.5zM443 203v42h-175q-86 0 -86 -67q0 -36 24 -51.5t88 -15.5q68 0 108.5 26.5t40.5 65.5z" />
    <glyph glyph-name="Cacute" unicode="&#x106;" horiz-adv-x="849" 
d="M437 767q134 0 241 -77.5t136 -203.5h-146q-33 66 -95 108.5t-136 42.5q-105 0 -180 -78t-75 -184q0 -107 75 -184.5t180 -77.5q74 0 136 42t95 109h146q-29 -126 -136 -203.5t-241 -77.5q-168 0 -285 113t-117 279t117 279t285 113zM522 910v-83l-171 -42v66z" />
    <glyph glyph-name="cacute" unicode="&#x107;" horiz-adv-x="690" 
d="M660 359h-145q-21 51 -60.5 83t-97.5 32q-77 0 -123.5 -52t-46.5 -132t46.5 -132t123.5 -52q58 0 97.5 32t60.5 83h145q-21 -111 -100 -174.5t-203 -63.5q-139 0 -228 87t-89 220t89 220t228 87q124 0 202.5 -63.5t100.5 -174.5zM442 767v-83l-171 -42v66z" />
    <glyph glyph-name="Ccaron" unicode="&#x10c;" horiz-adv-x="849" 
d="M437 767q134 0 241 -77.5t136 -203.5h-146q-33 66 -95 108.5t-136 42.5q-105 0 -180 -78t-75 -184q0 -107 75 -184.5t180 -77.5q74 0 136 42t95 109h146q-29 -126 -136 -203.5t-241 -77.5q-168 0 -285 113t-117 279t117 279t285 113zM471 790h-66l-80 102h64l47 -45h4
l47 45h64z" />
    <glyph glyph-name="ccaron" unicode="&#x10d;" horiz-adv-x="690" 
d="M660 359h-145q-21 51 -60.5 83t-97.5 32q-77 0 -123.5 -52t-46.5 -132t46.5 -132t123.5 -52q58 0 97.5 32t60.5 83h145q-21 -111 -100 -174.5t-203 -63.5q-139 0 -228 87t-89 220t89 220t228 87q124 0 202.5 -63.5t100.5 -174.5zM390 680h-66l-80 102h64l47 -45h4l47 45
h64z" />
    <glyph glyph-name="Dcaron" unicode="&#x10e;" horiz-adv-x="741" 
d="M60 750h261q164 0 274.5 -106.5t110.5 -268.5t-110.5 -268.5t-274.5 -106.5h-261v750zM558 375q0 98 -69.5 168.5t-167.5 70.5h-119v-478h119q98 0 167.5 70t69.5 169zM390 790h-66l-80 102h64l47 -45h4l47 45h64z" />
    <glyph glyph-name="dcaron" unicode="&#x10f;" horiz-adv-x="847" 
d="M526 0v85h-2q-76 -102 -193 -102q-129 0 -210 87t-81 220t81 219.5t210 86.5q118 0 193 -101h2v255h142v-750h-142zM526 290q0 72 -48 124t-121 52t-121 -52t-48 -124t48 -124.5t121 -52.5t121 52.5t48 124.5zM748 750h83l-59 -185h-66z" />
    <glyph glyph-name="Emacron" unicode="&#x112;" horiz-adv-x="646" 
d="M202 136h409v-136h-551v750h551v-136h-409v-170h340v-136h-340v-172zM438 880v-78h-187v78h187z" />
    <glyph glyph-name="emacron" unicode="&#x113;" horiz-adv-x="707" 
d="M667 290q0 -30 -8 -65h-467q12 -49 57.5 -84t104.5 -35q43 0 77 19.5t53 48.5h154q-31 -87 -109 -139t-175 -52q-131 0 -222.5 88.5t-91.5 218.5t92 218t224 88q129 0 220 -89t91 -217zM194 348h321q-11 55 -53.5 91.5t-105.5 36.5t-107 -37t-55 -91zM450 750v-78h-187
v78h187z" />
    <glyph glyph-name="Edotaccent" unicode="&#x116;" horiz-adv-x="646" 
d="M202 136h409v-136h-551v750h551v-136h-409v-170h340v-136h-340v-172zM352 778q-32 0 -54.5 23t-22.5 54t22.5 54t54.5 23t54.5 -23t22.5 -54t-22.5 -54t-54.5 -23z" />
    <glyph glyph-name="edotaccent" unicode="&#x117;" horiz-adv-x="707" 
d="M667 290q0 -30 -8 -65h-467q12 -49 57.5 -84t104.5 -35q43 0 77 19.5t53 48.5h154q-31 -87 -109 -139t-175 -52q-131 0 -222.5 88.5t-91.5 218.5t92 218t224 88q129 0 220 -89t91 -217zM194 348h321q-11 55 -53.5 91.5t-105.5 36.5t-107 -37t-55 -91zM356 652
q-32 0 -54.5 23t-22.5 54t22.5 54t54.5 23t54.5 -23t22.5 -54t-22.5 -54t-54.5 -23z" />
    <glyph glyph-name="Eogonek" unicode="&#x118;" horiz-adv-x="646" 
d="M513 -58q0 -24 17 -41t41 -17q21 0 40 17v-63q-31 -26 -69 -26q-45 0 -76.5 31.5t-31.5 76.5q0 50 35 80h-409v750h551v-136h-409v-170h340v-136h-340v-172h409v-136h-40q-24 0 -41 -17t-17 -41z" />
    <glyph glyph-name="eogonek" unicode="&#x119;" horiz-adv-x="707" 
d="M667 290q0 -30 -8 -65h-467q12 -49 57.5 -84t104.5 -35q43 0 77 19.5t53 48.5h154q-39 -110 -147 -161q-40 -20 -40 -67q0 -24 17 -43t41 -19q21 0 40 17v-63q-31 -26 -69 -26q-45 0 -76.5 33.5t-31.5 78.5q0 32 18 61q-24 -2 -36 -2q-131 0 -222.5 88.5t-91.5 218.5
t92 218t224 88q129 0 220 -89t91 -217zM194 348h321q-11 55 -53.5 91.5t-105.5 36.5t-107 -37t-55 -91z" />
    <glyph glyph-name="Ecaron" unicode="&#x11a;" horiz-adv-x="651" 
d="M202 136h409v-136h-551v750h551v-136h-409v-170h340v-136h-340v-172zM386 790h-66l-80 102h64l47 -45h4l47 45h64z" />
    <glyph glyph-name="ecaron" unicode="&#x11b;" horiz-adv-x="707" 
d="M667 290q0 -30 -8 -65h-467q12 -49 57.5 -84t104.5 -35q43 0 77 19.5t53 48.5h154q-31 -87 -109 -139t-175 -52q-131 0 -222.5 88.5t-91.5 218.5t92 218t224 88q129 0 220 -89t91 -217zM194 348h321q-11 55 -53.5 91.5t-105.5 36.5t-107 -37t-55 -91zM389 680h-66
l-80 102h64l47 -45h4l47 45h64z" />
    <glyph glyph-name="uni0122" unicode="&#x122;" horiz-adv-x="879" 
d="M474 -92v-56q0 -36 -25.5 -61.5t-61.5 -25.5v49q16 0 27 11t12 27q-4 -2 -10 -2q-24 0 -41 17t-17 41q0 23 17 40.5t41 17.5q23 0 40.5 -17.5t17.5 -40.5zM814 0h-132v121h-4q-36 -62 -106.5 -100t-161.5 -38q-155 0 -265 113t-110 279q0 167 118.5 279.5t293.5 112.5
q125 0 231 -69t136 -182h-154q-28 55 -84.5 88t-128.5 33q-112 0 -188 -77.5t-76 -184.5t73.5 -184.5t178.5 -77.5q87 0 157 57t84 138h-229v136h367v-444z" />
    <glyph glyph-name="uni0123" unicode="&#x123;" horiz-adv-x="637" 
d="M261 686v56q0 36 25.5 61.5t61.5 25.5v-49q-16 0 -27 -11t-12 -27q4 2 10 2q24 0 41 -17t17 -41q0 -23 -17 -40.5t-41 -17.5q-23 0 -40.5 17.5t-17.5 40.5zM545 493q-14 0 -21.5 -7.5t-5.5 -19.5q0 -3 7.5 -26t7.5 -41q0 -88 -57.5 -138t-156.5 -50q-97 0 -118 -7
q-27 -9 -27 -34q0 -18 15 -27q45 14 130 14q282 0 282 -170q0 -175 -282 -175q-283 0 -283 175q0 38 41 87q-35 38 -35 78q0 48 32.5 82.5t94.5 40.5v4q-27 19 -46 52t-19 68q0 86 60.5 141.5t154.5 55.5q79 0 136 -47q35 47 90 47h39v-103h-39zM184 -13q0 -35 33 -49
t102 -14q68 0 101 14t33 49q0 66 -134 66q-135 0 -135 -66zM395 399q0 31 -22.5 53.5t-53.5 22.5t-54 -22.5t-23 -53.5t22.5 -53t54.5 -22q31 0 53.5 22t22.5 53z" />
    <glyph glyph-name="Imacron" unicode="&#x12a;" 
d="M60 0v750h142v-750h-142zM225 880v-78h-187v78h187z" />
    <glyph glyph-name="imacron" unicode="&#x12b;" 
d="M60 579h142v-579h-142v579zM225 750v-78h-187v78h187z" />
    <glyph glyph-name="Iogonek" unicode="&#x12e;" 
d="M60 0v750h142v-750h-5q-24 0 -41 -17t-17 -41t17 -41t41 -17v-68q-12 -4 -29 -4q-45 0 -76.5 31.5t-31.5 76.5q0 50 35 80h-35z" />
    <glyph glyph-name="iogonek" unicode="&#x12f;" 
d="M139 -58q0 -24 17 -41t41 -17v-68q-12 -4 -29 -4q-45 0 -76.5 31.5t-31.5 76.5q0 50 35 80h-35v579h142v-579h-5q-24 0 -41 -17t-17 -41zM52 689q0 32 23.5 55t55.5 23t55.5 -23t23.5 -55q0 -33 -23 -55.5t-56 -22.5t-56 22.5t-23 55.5z" />
    <glyph glyph-name="dotlessi" unicode="&#x131;" 
d="M60 579h142v-579h-142v579z" />
    <glyph glyph-name="uni0136" unicode="&#x136;" horiz-adv-x="699" 
d="M358 375l326 -375h-180l-236 270l-66 -75v-195h-142v750h142v-347l302 347h180zM400 -75v-56q0 -36 -25.5 -61.5t-61.5 -25.5v49q16 0 27 11t12 27q-4 -2 -10 -2q-24 0 -41 17t-17 41q0 23 17 40.5t41 17.5q23 0 40.5 -17.5t17.5 -40.5z" />
    <glyph glyph-name="uni0137" unicode="&#x137;" horiz-adv-x="628" 
d="M427 579h189l-257 -269l257 -310h-178l-174 212l-62 -68v-144h-142v750h142v-410zM367 -75v-56q0 -36 -25.5 -61.5t-61.5 -25.5v49q16 0 27 11t12 27q-4 -2 -10 -2q-24 0 -41 17t-17 41q0 23 17 40.5t41 17.5q23 0 40.5 -17.5t17.5 -40.5z" />
    <glyph glyph-name="Lacute" unicode="&#x139;" horiz-adv-x="591" 
d="M576 136v-136h-516v750h142v-614h374zM423 910v-83l-171 -42v66z" />
    <glyph glyph-name="lacute" unicode="&#x13a;" 
d="M60 0v750h142v-750h-142zM217 910v-83l-171 -42v66z" />
    <glyph glyph-name="uni013B" unicode="&#x13b;" horiz-adv-x="591" 
d="M576 136v-136h-516v750h142v-614h374zM372 -75v-56q0 -36 -25.5 -61.5t-61.5 -25.5v49q16 0 27 11t12 27q-4 -2 -10 -2q-24 0 -41 17t-17 41q0 23 17 40.5t41 17.5q23 0 40.5 -17.5t17.5 -40.5z" />
    <glyph glyph-name="uni013C" unicode="&#x13c;" 
d="M189 -75v-56q0 -36 -25.5 -61.5t-61.5 -25.5v49q16 0 27 11t12 27q-4 -2 -10 -2q-24 0 -41 17t-17 41q0 23 17 40.5t41 17.5q23 0 40.5 -17.5t17.5 -40.5zM60 0v750h142v-750h-142z" />
    <glyph glyph-name="Lcaron" unicode="&#x13d;" horiz-adv-x="591" 
d="M576 136v-136h-516v750h142v-614h374zM493 750h83l-59 -185h-66z" />
    <glyph glyph-name="lcaron" unicode="&#x13e;" horiz-adv-x="381" 
d="M60 0v750h142v-750h-142zM282 750h83l-59 -185h-66z" />
    <glyph glyph-name="Lslash" unicode="&#x141;" horiz-adv-x="611" 
d="M221 136h375v-136h-517v285l-59 -12v136l59 13v328h142v-300l179 38v-136l-179 -38v-178z" />
    <glyph glyph-name="lslash" unicode="&#x142;" horiz-adv-x="297" 
d="M277 463v-136l-57 -13v-314h-142v285l-58 -12v136l58 13v328h142v-300z" />
    <glyph glyph-name="Nacute" unicode="&#x143;" horiz-adv-x="709" 
d="M440 910v-83l-171 -42v66zM649 750v-750h-142l-303 500h-3l1 -500h-142v750h142l303 -501h3l-1 501h142z" />
    <glyph glyph-name="nacute" unicode="&#x144;" horiz-adv-x="657" 
d="M202 0h-142v579h131v-83h2q24 44 70 72t109 28q100 0 162.5 -68.5t62.5 -177.5v-350h-142v338q0 53 -37 90.5t-89 37.5q-53 0 -90 -37.5t-37 -90.5v-338zM415 767v-83l-171 -42v66z" />
    <glyph glyph-name="uni0145" unicode="&#x145;" horiz-adv-x="709" 
d="M649 750v-750h-142l-303 500h-3l1 -500h-142v750h142l303 -501h3l-1 501h142zM412 -75v-56q0 -36 -25.5 -61.5t-61.5 -25.5v49q16 0 27 11t12 27q-4 -2 -10 -2q-24 0 -41 17t-17 41q0 23 17 40.5t41 17.5q23 0 40.5 -17.5t17.5 -40.5z" />
    <glyph glyph-name="uni0146" unicode="&#x146;" horiz-adv-x="657" 
d="M202 0h-142v579h131v-83h2q24 44 70 72t109 28q100 0 162.5 -68.5t62.5 -177.5v-350h-142v338q0 53 -37 90.5t-89 37.5q-53 0 -90 -37.5t-37 -90.5v-338zM387 -75v-56q0 -36 -25.5 -61.5t-61.5 -25.5v49q16 0 27 11t12 27q-4 -2 -10 -2q-24 0 -41 17t-17 41q0 23 17 40.5
t41 17.5q23 0 40.5 -17.5t17.5 -40.5z" />
    <glyph glyph-name="Ncaron" unicode="&#x147;" horiz-adv-x="709" 
d="M649 750v-750h-142l-303 500h-3l1 -500h-142v750h142l303 -501h3l-1 501h142zM387 790h-66l-80 102h64l47 -45h4l47 45h64z" />
    <glyph glyph-name="ncaron" unicode="&#x148;" horiz-adv-x="657" 
d="M202 0h-142v579h131v-83h2q24 44 70 72t109 28q100 0 162.5 -68.5t62.5 -177.5v-350h-142v338q0 53 -37 90.5t-89 37.5q-53 0 -90 -37.5t-37 -90.5v-338zM362 680h-66l-80 102h64l47 -45h4l47 45h64z" />
    <glyph glyph-name="Omacron" unicode="&#x14c;" horiz-adv-x="874" 
d="M691 375q0 106 -74 182t-180 76q-105 0 -179.5 -76t-74.5 -182q0 -107 74 -182.5t180 -75.5t180 75.5t74 182.5zM839 375q0 -166 -117.5 -279t-284.5 -113q-168 0 -285 113t-117 279t117 279t285 113q167 0 284.5 -113t117.5 -279zM530 880v-78h-187v78h187z" />
    <glyph glyph-name="omacron" unicode="&#x14d;" horiz-adv-x="714" 
d="M526 290q0 79 -46 129.5t-123 50.5q-76 0 -122.5 -51t-46.5 -129q0 -79 46.5 -130t122.5 -51q77 0 123 50.5t46 130.5zM674 290q0 -131 -92 -219t-225 -88q-132 0 -224.5 88t-92.5 219q0 130 92.5 218t224.5 88q133 0 225 -88t92 -218zM451 750v-78h-187v78h187z" />
    <glyph glyph-name="Ohungarumlaut" unicode="&#x150;" horiz-adv-x="874" 
d="M388 910h84l-73 -118h-84zM515 910h84l-73 -118h-84zM691 375q0 106 -74 182t-180 76q-105 0 -179.5 -76t-74.5 -182q0 -107 74 -182.5t180 -75.5t180 75.5t74 182.5zM839 375q0 -166 -117.5 -279t-284.5 -113q-168 0 -285 113t-117 279t117 279t285 113
q167 0 284.5 -113t117.5 -279z" />
    <glyph glyph-name="ohungarumlaut" unicode="&#x151;" horiz-adv-x="714" 
d="M298 750h84l-73 -118h-84zM425 750h84l-73 -118h-84zM526 290q0 79 -46 129.5t-123 50.5q-76 0 -122.5 -51t-46.5 -129q0 -79 46.5 -130t122.5 -51q77 0 123 50.5t46 130.5zM674 290q0 -131 -92 -219t-225 -88q-132 0 -224.5 88t-92.5 219q0 130 92.5 218t224.5 88
q133 0 225 -88t92 -218z" />
    <glyph glyph-name="OE" unicode="&#x152;" horiz-adv-x="1279" 
d="M835 136h409v-136h-551v77q-107 -94 -256 -94q-168 0 -285 113t-117 279t117 279t285 113q148 0 256 -95v78h551v-136h-409v-170h340v-136h-340v-172zM691 375q0 106 -74 182t-180 76q-105 0 -179.5 -76t-74.5 -182q0 -107 74 -182.5t180 -75.5t180 75.5t74 182.5z" />
    <glyph glyph-name="oe" unicode="&#x153;" horiz-adv-x="1185" 
d="M1145 290q0 -30 -8 -65h-467q12 -49 57.5 -84t104.5 -35q43 0 77 19.5t53 48.5h154q-31 -87 -109 -139t-175 -52q-144 0 -234 105q-92 -105 -241 -105q-132 0 -224.5 88t-92.5 219q0 130 92.5 218t224.5 88q147 0 241 -105q90 105 236 105q129 0 220 -89t91 -217z
M357 109q76 0 121.5 49.5t47.5 131.5q-2 81 -47.5 130.5t-121.5 49.5t-122.5 -51t-46.5 -129q0 -79 46.5 -130t122.5 -51zM672 348h321q-11 55 -53.5 91.5t-105.5 36.5t-107 -37t-55 -91z" />
    <glyph glyph-name="Racute" unicode="&#x154;" horiz-adv-x="694" 
d="M654 494q0 -79 -41.5 -140.5t-110.5 -91.5l131 -262h-158l-119 238h-154v-238h-142v750h330q110 0 187 -73.5t77 -182.5zM506 494q0 50 -33.5 85t-82.5 35h-188v-240h188q49 0 82.5 35t33.5 85zM427 910v-83l-171 -42v66z" />
    <glyph glyph-name="racute" unicode="&#x155;" horiz-adv-x="390" 
d="M60 0v579h126v-80h2q57 97 158 97h12v-144h-33q-51 0 -87.5 -34.5t-40.5 -85.5v-332h-137zM291 767v-83l-171 -42v66z" />
    <glyph glyph-name="uni0156" unicode="&#x156;" horiz-adv-x="694" 
d="M654 494q0 -79 -41.5 -140.5t-110.5 -91.5l131 -262h-158l-119 238h-154v-238h-142v750h330q110 0 187 -73.5t77 -182.5zM506 494q0 50 -33.5 85t-82.5 35h-188v-240h188q49 0 82.5 35t33.5 85zM394 -75v-56q0 -36 -25.5 -61.5t-61.5 -25.5v49q16 0 27 11t12 27
q-4 -2 -10 -2q-24 0 -41 17t-17 41q0 23 17 40.5t41 17.5q23 0 40.5 -17.5t17.5 -40.5z" />
    <glyph glyph-name="uni0157" unicode="&#x157;" horiz-adv-x="390" 
d="M60 0v579h126v-80h2q57 97 158 97h12v-144h-33q-51 0 -87.5 -34.5t-40.5 -85.5v-332h-137zM269 -75v-56q0 -36 -25.5 -61.5t-61.5 -25.5v49q16 0 27 11t12 27q-4 -2 -10 -2q-24 0 -41 17t-17 41q0 23 17 40.5t41 17.5q23 0 40.5 -17.5t17.5 -40.5z" />
    <glyph glyph-name="Rcaron" unicode="&#x158;" horiz-adv-x="694" 
d="M654 494q0 -79 -41.5 -140.5t-110.5 -91.5l131 -262h-158l-119 238h-154v-238h-142v750h330q110 0 187 -73.5t77 -182.5zM506 494q0 50 -33.5 85t-82.5 35h-188v-240h188q49 0 82.5 35t33.5 85zM383 790h-66l-80 102h64l47 -45h4l47 45h64z" />
    <glyph glyph-name="rcaron" unicode="&#x159;" horiz-adv-x="390" 
d="M60 0v579h126v-80h2q57 97 158 97h12v-144h-33q-51 0 -87.5 -34.5t-40.5 -85.5v-332h-137zM244 680h-66l-80 102h64l47 -45h4l47 45h64z" />
    <glyph glyph-name="Sacute" unicode="&#x15a;" horiz-adv-x="641" 
d="M406 910v-83l-171 -42v66zM583 541h-140q0 44 -36.5 73.5t-89.5 29.5q-55 0 -85.5 -24t-30.5 -65q0 -35 22 -57t57.5 -32.5t78 -18.5t85 -21.5t78 -35.5t57.5 -66t22 -107q0 -108 -79.5 -171t-204.5 -63q-124 0 -200.5 65.5t-76.5 177.5h140q0 -51 38.5 -85.5t98.5 -34.5
q61 0 98.5 31t37.5 80q0 36 -22 59t-57.5 33.5t-78 18.5t-85 21t-78 34.5t-57.5 65t-22 106.5q0 99 74.5 155.5t189.5 56.5q117 0 191.5 -60t74.5 -166z" />
    <glyph glyph-name="sacute" unicode="&#x15b;" horiz-adv-x="586" 
d="M378 767v-83l-171 -42v66zM527 400h-136q0 39 -28 60.5t-75 21.5q-45 0 -67.5 -17.5t-22.5 -45.5q0 -29 26 -44.5t64.5 -19.5t83.5 -13.5t83.5 -23.5t64.5 -53t26 -100q0 -91 -71.5 -136.5t-186.5 -45.5q-113 0 -180.5 53.5t-67.5 142.5h137q0 -36 31 -58.5t80 -22.5
q51 0 81.5 17.5t30.5 49.5q0 31 -25.5 47t-64 19.5t-83.5 12t-83.5 22t-64 52.5t-25.5 101q0 86 62 131.5t172 45.5q112 0 175.5 -51.5t63.5 -144.5z" />
    <glyph glyph-name="Scaron" unicode="&#x160;" horiz-adv-x="641" 
d="M583 541h-140q0 44 -36.5 73.5t-89.5 29.5q-55 0 -85.5 -24t-30.5 -65q0 -35 22 -57t57.5 -32.5t78 -18.5t85 -21.5t78 -35.5t57.5 -66t22 -107q0 -108 -79.5 -171t-204.5 -63q-124 0 -200.5 65.5t-76.5 177.5h140q0 -51 38.5 -85.5t98.5 -34.5q61 0 98.5 31t37.5 80
q0 36 -22 59t-57.5 33.5t-78 18.5t-85 21t-78 34.5t-57.5 65t-22 106.5q0 99 74.5 155.5t189.5 56.5q117 0 191.5 -60t74.5 -166zM350 790h-66l-80 102h64l47 -45h4l47 45h64z" />
    <glyph glyph-name="scaron" unicode="&#x161;" horiz-adv-x="586" 
d="M527 400h-136q0 39 -28 60.5t-75 21.5q-45 0 -67.5 -17.5t-22.5 -45.5q0 -29 26 -44.5t64.5 -19.5t83.5 -13.5t83.5 -23.5t64.5 -53t26 -100q0 -91 -71.5 -136.5t-186.5 -45.5q-113 0 -180.5 53.5t-67.5 142.5h137q0 -36 31 -58.5t80 -22.5q51 0 81.5 17.5t30.5 49.5
q0 31 -25.5 47t-64 19.5t-83.5 12t-83.5 22t-64 52.5t-25.5 101q0 86 62 131.5t172 45.5q112 0 175.5 -51.5t63.5 -144.5zM322 680h-66l-80 102h64l47 -45h4l47 45h64z" />
    <glyph glyph-name="Tcaron" unicode="&#x164;" horiz-adv-x="616" 
d="M601 614h-222v-614h-142v614h-222v136h586v-136zM341 790h-66l-80 102h64l47 -45h4l47 45h64z" />
    <glyph glyph-name="tcaron" unicode="&#x165;" horiz-adv-x="483" 
d="M78 469h-53v110h53v131h142v-131h99v-110h-99v-308q0 -15 10 -25t24 -10h65v-126h-65q-79 0 -127.5 46.5t-48.5 124.5v298zM388 750h83l-59 -185h-66z" />
    <glyph glyph-name="Umacron" unicode="&#x16a;" horiz-adv-x="718" 
d="M452 880v-78h-187v78h187zM658 750v-489q0 -127 -83.5 -202.5t-215.5 -75.5t-215.5 75t-83.5 203v489h142v-492q0 -66 44.5 -105.5t112.5 -39.5t112.5 39.5t44.5 105.5v492h142z" />
    <glyph glyph-name="umacron" unicode="&#x16b;" horiz-adv-x="657" 
d="M422 750v-78h-187v78h187zM455 579h142v-579h-131v83h-2q-24 -44 -70 -72t-109 -28q-100 0 -162.5 68.5t-62.5 177.5v350h142v-338q0 -53 37 -90.5t89 -37.5q53 0 90 37.5t37 90.5v338z" />
    <glyph glyph-name="Uring" unicode="&#x16e;" horiz-adv-x="718" 
d="M386 852q0 11 -8 18.5t-19 7.5t-19 -7.5t-8 -18.5q0 -12 8 -20t19 -8t19 8t8 20zM435 852q0 -30 -23 -52t-53 -22t-53 22t-23 52t23 51t53 21t53 -21t23 -51zM658 750v-489q0 -127 -83.5 -202.5t-215.5 -75.5t-215.5 75t-83.5 203v489h142v-492q0 -66 44.5 -105.5
t112.5 -39.5t112.5 39.5t44.5 105.5v492h142z" />
    <glyph glyph-name="uring" unicode="&#x16f;" horiz-adv-x="657" 
d="M455 579h142v-579h-131v83h-2q-24 -44 -70 -72t-109 -28q-100 0 -162.5 68.5t-62.5 177.5v350h142v-338q0 -53 37 -90.5t89 -37.5q53 0 90 37.5t37 90.5v338zM355 728q0 11 -8 18.5t-19 7.5t-19 -7.5t-8 -18.5q0 -12 8 -20t19 -8t19 8t8 20zM404 728q0 -30 -23 -52
t-53 -22t-53 22t-23 52t23 51t53 21t53 -21t23 -51z" />
    <glyph glyph-name="Uhungarumlaut" unicode="&#x170;" horiz-adv-x="718" 
d="M658 750v-489q0 -127 -83.5 -202.5t-215.5 -75.5t-215.5 75t-83.5 203v489h142v-492q0 -66 44.5 -105.5t112.5 -39.5t112.5 39.5t44.5 105.5v492h142zM300 910h84l-73 -118h-84zM427 910h84l-73 -118h-84z" />
    <glyph glyph-name="uhungarumlaut" unicode="&#x171;" horiz-adv-x="657" 
d="M455 579h142v-579h-131v83h-2q-24 -44 -70 -72t-109 -28q-100 0 -162.5 68.5t-62.5 177.5v350h142v-338q0 -53 37 -90.5t89 -37.5q53 0 90 37.5t37 90.5v338zM269 750h84l-73 -118h-84zM396 750h84l-73 -118h-84z" />
    <glyph glyph-name="Uogonek" unicode="&#x172;" horiz-adv-x="718" 
d="M658 750v-489q0 -99 -52.5 -168t-140.5 -95q-19 -5 -30.5 -20.5t-11.5 -35.5q0 -24 17 -41t41 -17q21 0 40 17v-63q-31 -26 -69 -26q-45 0 -76.5 31.5t-31.5 76.5q0 37 20 63h-5q-132 0 -215.5 75t-83.5 203v489h142v-492q0 -66 44.5 -105.5t112.5 -39.5t112.5 39.5
t44.5 105.5v492h142z" />
    <glyph glyph-name="uogonek" unicode="&#x173;" horiz-adv-x="657" 
d="M499 -58q0 -24 17 -41t41 -17q21 0 40 17v-63q-31 -26 -69 -26q-45 0 -76.5 31.5t-31.5 76.5q0 52 46 80v83h-2q-24 -44 -70 -72t-109 -28q-100 0 -162.5 68.5t-62.5 177.5v350h142v-338q0 -53 37 -90.5t89 -37.5q53 0 90 37.5t37 90.5v338h142v-579h-45
q-23 -2 -38 -18.5t-15 -39.5z" />
    <glyph glyph-name="Ydieresis" unicode="&#x178;" horiz-adv-x="715" 
d="M310 839q0 -21 -15.5 -36t-35.5 -15q-22 0 -36.5 15t-14.5 36q0 22 14.5 36.5t36.5 14.5q21 0 36 -15t15 -36zM508 839q0 -21 -14.5 -36t-36.5 -15q-21 0 -36 15t-15 36q0 22 15 36.5t36 14.5q22 0 36.5 -14.5t14.5 -36.5zM532 750h168l-270 -435v-315h-142v315l-273 435
h168l174 -291h4z" />
    <glyph glyph-name="Zacute" unicode="&#x179;" horiz-adv-x="639" 
d="M405 910v-83l-171 -42v66zM609 136v-136h-579v136l402 476v2h-402v136h579v-136l-401 -476v-2h401z" />
    <glyph glyph-name="zacute" unicode="&#x17a;" horiz-adv-x="570" 
d="M371 767v-83l-171 -42v66zM532 449l-302 -317v-2h302v-130h-494v130l303 317v2h-303v130h494v-130z" />
    <glyph glyph-name="Zdotaccent" unicode="&#x17b;" horiz-adv-x="639" 
d="M320 778q-32 0 -54.5 23t-22.5 54t22.5 54t54.5 23t54.5 -23t22.5 -54t-22.5 -54t-54.5 -23zM609 136v-136h-579v136l402 476v2h-402v136h579v-136l-401 -476v-2h401z" />
    <glyph glyph-name="zdotaccent" unicode="&#x17c;" horiz-adv-x="570" 
d="M285 652q-31 0 -54 23t-23 54t23 54t54 23t54 -23t23 -54t-23 -54t-54 -23zM532 449l-302 -317v-2h302v-130h-494v130l303 317v2h-303v130h494v-130z" />
    <glyph glyph-name="Zcaron" unicode="&#x17d;" horiz-adv-x="639" 
d="M609 136v-136h-579v136l402 476v2h-402v136h579v-136l-401 -476v-2h401zM353 790h-66l-80 102h64l47 -45h4l47 45h64z" />
    <glyph glyph-name="zcaron" unicode="&#x17e;" horiz-adv-x="570" 
d="M532 449l-302 -317v-2h302v-130h-494v130l303 317v2h-303v130h494v-130zM318 680h-66l-80 102h64l47 -45h4l47 45h64z" />
    <glyph glyph-name="florin" unicode="&#x192;" horiz-adv-x="459" 
d="M183 469h-52l16 110h52l4 32q9 64 56 102t106 38h79l-16 -110h-40q-16 0 -29 -11.5t-16 -28.5l-2 -22h79l-16 -110h-79l-69 -500q-9 -64 -56 -102t-106 -38h-79l16 110h40q16 0 29 11.5t16 28.5z" />
    <glyph glyph-name="circumflex" unicode="&#x2c6;" horiz-adv-x="426" 
d="M180 782h66l80 -102h-64l-47 45h-4l-47 -45h-64z" />
    <glyph glyph-name="caron" unicode="&#x2c7;" horiz-adv-x="426" 
d="M246 680h-66l-80 102h64l47 -45h4l47 45h64z" />
    <glyph glyph-name="breve" unicode="&#x2d8;" horiz-adv-x="322" 
d="M60 750h75q8 -15 25 -15t27 15h75q-6 -37 -34.5 -61.5t-67.5 -24.5q-37 0 -65.5 24.5t-34.5 61.5z" />
    <glyph glyph-name="dotaccent" unicode="&#x2d9;" horiz-adv-x="274" 
d="M137 652q-31 0 -54 23t-23 54t23 54t54 23t54 -23t23 -54t-23 -54t-54 -23z" />
    <glyph glyph-name="ring" unicode="&#x2da;" horiz-adv-x="352" 
d="M203 728q0 11 -8 18.5t-19 7.5t-19 -7.5t-8 -18.5q0 -12 8 -20t19 -8t19 8t8 20zM252 728q0 -30 -23 -52t-53 -22t-53 22t-23 52t23 51t53 21t53 -21t23 -51z" />
    <glyph glyph-name="ogonek" unicode="&#x2db;" horiz-adv-x="297" 
d="M139 -58q0 -24 17 -41t41 -17q21 0 40 17v-63q-31 -26 -69 -26q-45 0 -76.5 31.5t-31.5 76.5t31.5 76.5t76.5 31.5q11 0 29 -4v-24q-24 0 -41 -17t-17 -41z" />
    <glyph glyph-name="tilde" unicode="&#x2dc;" horiz-adv-x="427" 
d="M273 737h54q0 -30 -21.5 -52t-51.5 -22q-43 0 -65 38q-4 11 -16 11q-19 0 -19 -19h-54q0 30 21.5 52t51.5 22q44 0 63 -39q6 -10 18 -10q19 0 19 19z" />
    <glyph glyph-name="hungarumlaut" unicode="&#x2dd;" horiz-adv-x="404" 
d="M133 750h84l-73 -118h-84zM260 750h84l-73 -118h-84z" />
    <glyph glyph-name="pi" unicode="&#x3c0;" horiz-adv-x="640" 
d="M610 453h-94v-336q0 -31 28 -31q13 0 26 4v-107q-24 -3 -31 -3q-82 0 -120.5 32.5t-38.5 112.5v328h-120v-453h-136v453h-94v126h580v-126z" />
    <glyph glyph-name="endash" unicode="&#x2013;" horiz-adv-x="619" 
d="M45 340h529v-102h-529v102z" />
    <glyph glyph-name="emdash" unicode="&#x2014;" horiz-adv-x="909" 
d="M45 341h819v-102h-819v102z" />
    <glyph glyph-name="quoteleft" unicode="&#x2018;" horiz-adv-x="234" 
d="M50 567v75q0 48 34 81.5t81 33.5h16v-65h-16q-20 0 -35 -14t-16 -35q4 1 13 1q32 0 54.5 -22t22.5 -55q0 -31 -22.5 -53t-54.5 -22t-54.5 22t-22.5 53z" />
    <glyph glyph-name="quoteright" unicode="&#x2019;" horiz-adv-x="234" 
d="M184 682v-75q0 -48 -33.5 -81.5t-81.5 -33.5h-16v65h16q21 0 35.5 14t14.5 35q-3 -1 -12 -1q-32 0 -54.5 22t-22.5 55q0 31 22.5 53t54.5 22t54.5 -22t22.5 -53z" />
    <glyph glyph-name="quotesinglbase" unicode="&#x201a;" horiz-adv-x="234" 
d="M204 -5q0 -48 -34 -82t-81 -34v65q20 0 35 14.5t16 35.5q-5 -2 -13 -2q-31 0 -54 23t-23 54t23 54t54 23t54 -23t23 -54v-74z" />
    <glyph glyph-name="quotedblleft" unicode="&#x201c;" horiz-adv-x="418" 
d="M234 567v75q0 48 33.5 81.5t81.5 33.5h16v-65h-16q-21 0 -35.5 -14t-14.5 -35q3 1 12 1q32 0 54.5 -22t22.5 -55q0 -31 -22.5 -53t-54.5 -22t-54.5 22t-22.5 53zM50 567v75q0 48 34 81.5t81 33.5h16v-65h-16q-20 0 -35 -14t-16 -35q4 1 13 1q32 0 54.5 -22t22.5 -55
q0 -31 -22.5 -53t-54.5 -22t-54.5 22t-22.5 53z" />
    <glyph glyph-name="quotedblright" unicode="&#x201d;" horiz-adv-x="418" 
d="M184 682v-75q0 -48 -33.5 -81.5t-81.5 -33.5h-16v65h16q21 0 35.5 14t14.5 35q-3 -1 -12 -1q-32 0 -54.5 22t-22.5 55q0 31 22.5 53t54.5 22t54.5 -22t22.5 -53zM368 682v-75q0 -48 -34 -81.5t-81 -33.5h-16v65h16q20 0 35 14t16 35q-4 -1 -13 -1q-32 0 -54.5 22
t-22.5 55q0 31 22.5 53t54.5 22t54.5 -22t22.5 -53z" />
    <glyph glyph-name="quotedblbase" unicode="&#x201e;" horiz-adv-x="418" 
d="M184 69v-75q0 -48 -33.5 -81.5t-81.5 -33.5h-16v65h16q21 0 35.5 14t14.5 35q-3 -1 -12 -1q-32 0 -54.5 22t-22.5 55q0 31 22.5 53t54.5 22t54.5 -22t22.5 -53zM368 69v-75q0 -48 -34 -81.5t-81 -33.5h-16v65h16q20 0 35 14t16 35q-4 -1 -13 -1q-32 0 -54.5 22t-22.5 55
q0 31 22.5 53t54.5 22t54.5 -22t22.5 -53z" />
    <glyph glyph-name="dagger" unicode="&#x2020;" horiz-adv-x="506" 
d="M60 579h160v171h70v-171h156v-66h-156v-599h-70v599h-160v66z" />
    <glyph glyph-name="daggerdbl" unicode="&#x2021;" horiz-adv-x="506" 
d="M60 85v66h160v362h-160v66h160v171h70v-171h156v-66h-156v-362h156v-66h-156v-171h-70v171h-160z" />
    <glyph glyph-name="bullet" unicode="&#x2022;" horiz-adv-x="439" 
d="M220 171q-50 0 -85 35t-35 84t35 84t85 35q49 0 84 -35t35 -84t-35 -84t-84 -35z" />
    <glyph glyph-name="ellipsis" unicode="&#x2026;" horiz-adv-x="995" 
d="M807 69q0 32 22.5 54.5t54.5 22.5t54 -22.5t22 -54.5t-22 -54.5t-54 -22.5t-54.5 22.5t-22.5 54.5zM421 69q0 31 22.5 54t54.5 23t54.5 -23t22.5 -54t-22.5 -54t-54.5 -23t-54.5 23t-22.5 54zM35 69q0 31 22.5 54t54.5 23t54.5 -23t22.5 -54t-22.5 -54t-54.5 -23
t-54.5 23t-22.5 54z" />
    <glyph glyph-name="perthousand" unicode="&#x2030;" horiz-adv-x="933" 
d="M188 -17l-69 29l243 582h-11q-21 0 -39 6q-11 -46 -48.5 -75.5t-85.5 -29.5q-56 0 -97 40t-41 96t41 96t97 40q38 0 69.5 -18t49.5 -49q18 -32 54 -32q19 0 35 11t23 28l25 60l69 -29zM587 120q0 -57 -40 -97t-97 -40q-56 0 -96.5 40t-40.5 97q0 56 40.5 96t96.5 40
q57 0 97 -40t40 -96zM241 631q0 26 -18.5 44.5t-44.5 18.5q-25 0 -43.5 -18.5t-18.5 -44.5t18.5 -44t43.5 -18q26 0 44.5 18t18.5 44zM511 120q0 26 -17.5 44t-43.5 18q-25 0 -43 -18.5t-18 -43.5q0 -26 18 -44.5t43 -18.5q26 0 43.5 18.5t17.5 44.5zM893 120q0 -57 -40 -97
t-97 -40q-56 0 -96.5 40t-40.5 97q0 56 40.5 96t96.5 40q57 0 97 -40t40 -96zM817 120q0 26 -17.5 44t-43.5 18q-25 0 -43 -18.5t-18 -43.5q0 -26 18 -44.5t43 -18.5q26 0 43.5 18.5t17.5 44.5z" />
    <glyph glyph-name="guilsinglleft" unicode="&#x2039;" horiz-adv-x="293" 
d="M40 290l213 212v-144l-75 -66v-4l75 -67v-144z" />
    <glyph glyph-name="guilsinglright" unicode="&#x203a;" horiz-adv-x="293" 
d="M40 502l213 -212l-213 -213v144l75 67v4l-75 66v144z" />
    <glyph glyph-name="fraction" unicode="&#x2044;" horiz-adv-x="492" 
d="M60 5l317 763l55 -21l-319 -763z" />
    <glyph glyph-name="Euro" unicode="&#x20ac;" horiz-adv-x="676" 
d="M494 243h142q0 -114 -78 -187t-190 -73t-190.5 74.5t-78.5 188.5v18h-64v86h64v50h-64v86h64v17q0 114 78.5 189t190.5 75t190 -75t78 -189h-142q0 55 -36.5 93t-89.5 38t-90 -37.5t-37 -90.5v-20h192l-32 -86h-160v-50h145l-30 -86h-115v-21q0 -53 37 -90t90 -37
q52 0 89 37t37 90z" />
    <glyph glyph-name="trademark" unicode="&#x2122;" horiz-adv-x="363" 
d="M323 750v-150h-28v82h-1l-32 -82h-28l-33 82h-1v-82h-28v150h28l47 -113h2l46 113h28zM40 750h117v-27h-44v-123h-28v123h-45v27z" />
    <glyph glyph-name="Omega" unicode="&#x2126;" horiz-adv-x="884" 
d="M844 395q0 -130 -116 -257v-2h89v-136h-283v136q72 28 117 93t45 146q0 106 -74 181t-180 75t-180 -75t-74 -181q0 -81 45 -146t118 -93v-136h-284v136h90v2q-117 126 -117 257q0 165 115.5 268.5t286.5 103.5t286.5 -103.5t115.5 -268.5z" />
    <glyph glyph-name="partialdiff" unicode="&#x2202;" horiz-adv-x="696" 
d="M656 339q0 -157 -86 -256.5t-222 -99.5q-132 0 -220 82t-88 216q0 110 75 186t183 76q143 0 208 -95l3 2q0 51 -18 90t-48.5 61t-65 32.5t-72.5 10.5q-35 0 -77 -13t-72 -35v132q28 15 76 26.5t83 11.5q341 0 341 -427zM508 279q0 67 -46.5 113.5t-113.5 46.5
t-113.5 -46.5t-46.5 -113.5t46.5 -113.5t113.5 -46.5t113.5 46.5t46.5 113.5z" />
    <glyph glyph-name="Delta" unicode="&#x2206;" horiz-adv-x="592" 
d="M20 0l225 750h102l225 -750h-552zM158 102h276l-137 466h-4z" />
    <glyph glyph-name="product" unicode="&#x220f;" horiz-adv-x="630" 
d="M605 614h-94v-614h-136v614h-120v-614h-136v614h-94v136h580v-136z" />
    <glyph glyph-name="summation" unicode="&#x2211;" horiz-adv-x="561" 
d="M536 136v-136h-511v136l239 239l-239 239v136h511v-136h-317v-2l238 -237l-238 -237v-2h317z" />
    <glyph glyph-name="minus" unicode="&#x2212;" horiz-adv-x="679" 
d="M50 340h579v-102h-579v102z" />
    <glyph glyph-name="radical" unicode="&#x221a;" horiz-adv-x="522" 
d="M210 308l67 -171h4l100 613h111l-132 -750h-132l-66 175h-4l-23 -72h-105l79 205h101z" />
    <glyph glyph-name="infinity" unicode="&#x221e;" horiz-adv-x="718" 
d="M359 347q61 96 143 96q67 0 116.5 -44.5t49.5 -108.5q0 -65 -49.5 -109.5t-116.5 -44.5q-81 0 -143 93q-62 -93 -143 -93q-67 0 -116.5 44.5t-49.5 109.5q0 64 49.5 108.5t116.5 44.5q82 0 143 -96zM591 289q0 38 -26 64t-63 26q-54 0 -107 -91q52 -87 107 -87
q38 0 63.5 25.5t25.5 62.5zM323 288q-53 91 -107 91q-37 0 -63 -26t-26 -64q0 -37 25.5 -62.5t63.5 -25.5q55 0 107 87z" />
    <glyph glyph-name="integral" unicode="&#x222b;" horiz-adv-x="340" 
d="M100 -21l-2 632q1 64 42.5 102t100.5 38h79v-110h-41q-16 0 -27 -11.5t-12 -28.5l2 -632q-1 -64 -42.5 -102t-100.5 -38h-79v110h41q16 0 27 11.5t12 28.5z" />
    <glyph glyph-name="approxequal" unicode="&#x2248;" horiz-adv-x="679" 
d="M50 154v102q8 3 22.5 8.5t54 15.5t74.5 13t75 -5t64 -32t62.5 -32.5t76.5 -4t72.5 12.5t56.5 16l21 8v-102q-8 -3 -22.5 -8.5t-54 -15.5t-74.5 -13t-74 5t-63 32t-63 32.5t-77 4t-73 -12.5t-56 -16zM50 323v103q8 3 22.5 8.5t54 15.5t74.5 13t75 -5t64 -32t62.5 -33
t76.5 -4.5t72.5 12.5t56.5 17l21 8v-103q-8 -3 -22.5 -8.5t-54 -15.5t-74.5 -13t-74 5t-63 32t-63 33t-77 4.5t-73 -12.5t-56 -16z" />
    <glyph glyph-name="notequal" unicode="&#x2260;" horiz-adv-x="680" 
d="M447 325l-68 -69h251v-102h-354l-80 -80h-146l82 80h-82v102h184l68 69h-252v102h354l81 80h145l-81 -80h81v-102h-183z" />
    <glyph glyph-name="lessequal" unicode="&#x2264;" horiz-adv-x="422" 
d="M40 102h342v-102h-342v102zM40 426l342 153v-111l-224 -91v-4l224 -91v-111l-342 152v103z" />
    <glyph glyph-name="greaterequal" unicode="&#x2265;" horiz-adv-x="422" 
d="M40 102h342v-102h-342v102zM40 579l342 -153v-103l-342 -152v111l224 91v4l-224 91v111z" />
    <glyph glyph-name="lozenge" unicode="&#x25ca;" horiz-adv-x="557" 
d="M517 375l-187 -375h-102l-188 375l188 375h102zM154 375l124 -259h2l123 259l-123 259h-2z" />
    <glyph glyph-name="uniF8FF" unicode="&#xf8ff;" horiz-adv-x="500" 
 />
    <glyph glyph-name="ff" unicode="&#xfb00;" horiz-adv-x="673" 
d="M564 579h79v-110h-79v-469h-142v469h-198v-469h-142v469h-52v110h52v20q0 73 45 112t125 39h51v-116h-44q-14 0 -24.5 -10.5t-10.5 -24.5v-20h198v20q0 73 45 112t125 39h51v-116h-44q-14 0 -24.5 -10.5t-10.5 -24.5v-20z" />
    <glyph glyph-name="fi" unicode="&#xfb01;" horiz-adv-x="625" 
d="M224 579h341v-579h-142v469h-199v-469h-142v469h-52v110h52v20q0 73 45 112t125 39h51v-116h-44q-14 0 -24.5 -10.5t-10.5 -24.5v-20zM415 692q0 33 23 56t56 23t56 -23t23 -56t-23 -56t-56 -23t-56 23t-23 56z" />
    <glyph glyph-name="fl" unicode="&#xfb02;" horiz-adv-x="627" 
d="M326 579v-124h-100v-455h-142v455h-54v124h54v18q0 72 49.5 112.5t123.5 40.5h310v-750h-142v635h-164q-14 0 -24.5 -11.5t-10.5 -26.5v-18h100z" />
    <glyph glyph-name="ffi" unicode="&#xfb03;" horiz-adv-x="965" 
d="M564 579h341v-579h-142v469h-199v-469h-142v469h-198v-469h-142v469h-52v110h52v20q0 73 45 112t125 39h51v-116h-44q-14 0 -24.5 -10.5t-10.5 -24.5v-20h198v20q0 73 45 112t125 39h51v-116h-44q-14 0 -24.5 -10.5t-10.5 -24.5v-20zM755 692q0 33 23 56t56 23t56 -23
t23 -56t-23 -56t-56 -23t-56 23t-23 56z" />
    <glyph glyph-name="ffl" unicode="&#xfb04;" horiz-adv-x="974" 
d="M673 579v-110h-100v-469h-142v469h-207v-469h-142v469h-52v110h52v20q0 73 45 112t125 39h51v-116h-44q-14 0 -24.5 -10.5t-10.5 -24.5v-20h207v18q0 72 49.5 112.5t123.5 40.5h310v-750h-142v635h-164q-14 0 -24.5 -11.5t-10.5 -26.5v-18h100z" />
    <glyph glyph-name="tt" unicode="&#xfb05;" horiz-adv-x="689" 
d="M423 469h-203v-308q0 -15 10 -25t24 -10h65v-126h-65q-79 0 -127.5 46.5t-48.5 124.5v298h-53v110h53v131h142v-131h203v131h142v-131h99v-110h-99v-308q0 -15 10 -25t24 -10h65v-126h-65q-79 0 -127.5 46.5t-48.5 124.5v298z" />
    <glyph glyph-name="ft" unicode="&#xfb06;" horiz-adv-x="689" 
d="M423 469h-199v-469h-142v469h-52v110h52v20q0 73 45 112t125 39h51v-116h-44q-14 0 -24.5 -10.5t-10.5 -24.5v-20h199v131h142v-131h99v-110h-99v-308q0 -15 10 -25t24 -10h65v-126h-65q-79 0 -127.5 46.5t-48.5 124.5v298z" />
    <glyph glyph-name="Publisher" unicode="&#xfb07;" horiz-adv-x="693" 
d="M530 341q0 -64 -45.5 -109t-109.5 -45h-88v-103h-75v411h163q65 0 110 -45t45 -109zM453 341q0 33 -23 56.5t-55 23.5h-88v-160h88q32 0 55 23.5t23 56.5zM615 290q0 112 -78 191.5t-191 79.5q-111 0 -189.5 -79.5t-78.5 -191.5t78.5 -192t189.5 -80q113 0 191 80t78 192
zM653 290q0 -128 -89.5 -217.5t-217.5 -89.5q-127 0 -216.5 90t-89.5 217t89.5 216.5t216.5 89.5t217 -89.5t90 -216.5z" />
    <glyph glyph-name="_0000" horiz-adv-x="501" 
 />
    </font>
</defs>
</svg>
